<?xml version="1.0" encoding="UTF-8"?>
<!DOCTYPE svg PUBLIC "-//W3C//DTD SVG 1.0//EN" "http://www.w3.org/TR/2001/REC-SVG-20010904/DTD/svg10.dtd">
<!-- Creator: CorelDRAW 2021 (64-Bit) -->
<svg xmlns="http://www.w3.org/2000/svg" xml:space="preserve" width="20130px" height="7146px" version="1.0" style="shape-rendering:geometricPrecision; text-rendering:geometricPrecision; image-rendering:optimizeQuality; fill-rule:evenodd; clip-rule:evenodd"
viewBox="0 0 1432.67 508.59"
 xmlns:xlink="http://www.w3.org/1999/xlink"
 xmlns:xodm="http://www.corel.com/coreldraw/odm/2003">
 <defs>
  <style type="text/css">
   <![CDATA[
    .fil2 {fill:#0171C4;fill-rule:nonzero}
    .fil24 {fill:#061426;fill-rule:nonzero}
    .fil20 {fill:#140E13;fill-rule:nonzero}
    .fil18 {fill:#19152A;fill-rule:nonzero}
    .fil5 {fill:#1E1C37;fill-rule:nonzero}
    .fil31 {fill:#1E3851;fill-rule:nonzero}
    .fil23 {fill:#264255;fill-rule:nonzero}
    .fil1 {fill:#284863;fill-rule:nonzero}
    .fil27 {fill:#2A2015;fill-rule:nonzero}
    .fil21 {fill:#333333;fill-rule:nonzero}
    .fil29 {fill:#41160E;fill-rule:nonzero}
    .fil16 {fill:#581A1A;fill-rule:nonzero}
    .fil25 {fill:#5F1E0F;fill-rule:nonzero}
    .fil33 {fill:#662727;fill-rule:nonzero}
    .fil19 {fill:#6B2626;fill-rule:nonzero}
    .fil4 {fill:#7E3232;fill-rule:nonzero}
    .fil34 {fill:#893E3E;fill-rule:nonzero}
    .fil7 {fill:#8A4630;fill-rule:nonzero}
    .fil3 {fill:#9C573E;fill-rule:nonzero}
    .fil14 {fill:#AA7A72;fill-rule:nonzero}
    .fil28 {fill:#AD2C22;fill-rule:nonzero}
    .fil15 {fill:#B28484;fill-rule:nonzero}
    .fil30 {fill:#B6B8B3;fill-rule:nonzero}
    .fil17 {fill:#CFB2A7;fill-rule:nonzero}
    .fil26 {fill:#D37118;fill-rule:nonzero}
    .fil6 {fill:#D7BCAA;fill-rule:nonzero}
    .fil32 {fill:#E1CCC5;fill-rule:nonzero}
    .fil13 {fill:#E66C40;fill-rule:nonzero}
    .fil0 {fill:#EA8622;fill-rule:nonzero}
    .fil35 {fill:#EAA882;fill-rule:nonzero}
    .fil12 {fill:#EE946D;fill-rule:nonzero}
    .fil11 {fill:#F0D2BB;fill-rule:nonzero}
    .fil10 {fill:#F2A680;fill-rule:nonzero}
    .fil8 {fill:#F4EBDC;fill-rule:nonzero}
    .fil22 {fill:#F6EFE4;fill-rule:nonzero}
    .fil9 {fill:white;fill-rule:nonzero}
   ]]>
  </style>
 </defs>
 <g id="Capa_x0020_1">
  <metadata id="CorelCorpID_0Corel-Layer"/>
  <g id="_2220203387584">
   <polygon class="fil0" points="798.7,33.54 803.04,27.98 810.08,28.4 806.13,22.56 808.71,15.99 801.93,17.94 796.48,13.46 796.24,20.51 790.3,24.3 796.93,26.71 "/>
   <polygon class="fil0" points="1006.14,365.29 1008.89,361.75 1013.38,362.02 1010.86,358.3 1012.51,354.13 1008.19,355.37 1004.73,352.52 1004.58,357 1000.79,359.41 1005.01,360.95 "/>
   <polygon class="fil0" points="1323.4,89.76 1326.21,86.15 1330.78,86.42 1328.22,82.63 1329.89,78.37 1325.49,79.64 1321.96,76.73 1321.8,81.3 1317.94,83.77 1322.25,85.33 "/>
   <polygon class="fil0" points="228.68,106.27 230.87,102.25 235.43,101.77 232.28,98.45 233.24,93.97 229.1,95.93 225.14,93.64 225.73,98.18 222.33,101.24 226.82,102.08 "/>
   <polygon class="fil0" points="120.86,127.19 123.04,124.39 126.58,124.6 124.6,121.67 125.89,118.36 122.48,119.34 119.75,117.09 119.62,120.64 116.64,122.55 119.97,123.76 "/>
   <polygon class="fil0" points="997.93,10.1 1000.11,7.3 1003.65,7.51 1001.66,4.57 1002.96,1.27 999.55,2.25 996.81,0 996.69,3.54 993.7,5.45 997.03,6.66 "/>
   <polygon class="fil0" points="359.48,33.59 361.66,30.8 365.2,31.01 363.22,28.07 364.51,24.77 361.1,25.75 358.36,23.5 358.24,27.04 355.25,28.95 358.59,30.16 "/>
   <polygon class="fil0" points="487.54,370.34 489.72,367.54 493.26,367.75 491.28,364.82 492.57,361.51 489.16,362.49 486.42,360.24 486.3,363.78 483.31,365.7 486.65,366.91 "/>
   <path class="fil1" d="M1277.8 54.26c0,1.43 1.15,2.59 2.58,2.59 1.43,0 2.58,-1.16 2.58,-2.59 0,-1.43 -1.15,-2.58 -2.58,-2.58 -1.43,0 -2.58,1.15 -2.58,2.58z"/>
   <path class="fil2" d="M654.48 412.48c3.61,5.16 -0.89,19.73 -0.89,19.73l-17.89 0c-2.15,-7.45 7.05,-17.55 7.05,-17.55 0,0 10.01,-4.64 11.73,-2.18z"/>
   <path class="fil3" d="M715.9 285.25l39.3 126.78 12.2 16.9c0,0 -14.48,-2.93 -21.16,-5.58 -6.67,-2.64 -9.65,-12.41 -9.65,-12.41 0,0 -14.11,-22.81 -20.99,-35.72 -6.88,-12.92 -12.94,-45.15 -12.94,-45.15l-23.34 -44.52 36.58 -0.3z"/>
   <path class="fil3" d="M641.6 286.47l0.43 48.46c0,0 -4.13,26.74 -3.53,44.17 0.35,10.16 1.31,18.67 2.05,24 0.5,3.62 1.39,7.73 0.94,11.36 -0.5,4.04 -2.12,8.14 0.17,9.22 3.97,1.87 11.5,-5.11 11.5,-5.11 0,0 6.12,-23.46 10.23,-44.66 3.62,-18.71 3.55,-38.32 3.55,-38.32l8 -28.1 -33.34 -21.02z"/>
   <path class="fil3" d="M674.16 156.22c-0.71,-3.18 -5.22,-7.13 -11.4,-24.08 -5.44,-10.05 -14.44,-49.63 -18.17,-63.58 -3.73,-13.96 -13.79,-37.54 -19.96,-46.77 -6.17,-9.23 -6.92,-7.67 -6.63,-3.11 0.45,6.9 -4.32,-6.42 -5.41,-1.51 -1.08,4.9 3.74,14.36 3.74,14.36 0.4,1.71 7.87,12.14 9.51,22.67 5.92,38.92 12.34,53.86 12.34,53.86 0,0 2.94,25.71 5.53,35.42 6.42,23.98 19.01,43.39 19.01,43.39 0,0 22.11,16.81 11.44,-30.65z"/>
   <path class="fil4" d="M707.41 169.93l-33.88 -0.81c-3.16,-0.07 -6.2,1.31 -8.15,3.8 -2.17,2.77 -4.26,6.85 -3.3,11.63 1.81,9.03 11.92,17.88 9.93,23.48 -1.99,5.6 -17.34,9.57 -25.28,28.89 -6.13,14.91 -8.29,72.6 -8.29,72.6l89.52 0c0,0 -3.68,-12.62 -6.99,-37.07 -3.27,-24.21 -11.42,-42.6 -12.77,-47.05 0.03,-10.35 -0.04,-19.83 3.36,-31.09 4.88,-11.38 -4.15,-24.38 -4.15,-24.38z"/>
   <path class="fil5" d="M718.83 123.72c0,-16.11 -12.82,-29.17 -28.64,-29.17 -15.82,0 -28.64,13.06 -28.64,29.17 0,16.12 12.82,29.18 28.64,29.18 15.82,0 28.64,-13.06 28.64,-29.18z"/>
   <path class="fil3" d="M687.25 170.11l-20.45 -0.16 -4.84 -14.51c0,0 29.5,0 37.93,0.46 8.44,0.47 22.59,16.99 29.14,27.6 6.56,10.62 11.61,28.61 -1.19,27.83 -12.8,-0.78 -40.59,-41.22 -40.59,-41.22z"/>
   <path class="fil3" d="M689.44 156.22l0.48 -8.4c0,0 -4.07,-3.24 -4.65,-10.77 -0.58,-7.53 3.19,-13.57 -1.73,-14.43 -4.93,-0.87 -7.67,5.64 -9.99,11.87 -1.33,3.66 -3.01,7.94 -1.88,10.85 1.54,3.92 4.34,4.65 4.34,4.65l-0.58 6.23 14.01 0z"/>
   <path class="fil2" d="M772.61 432.66c1.07,-7.47 -5.63,-6.59 -17.83,-21.4l5.81 10.6c0.63,0.83 2.02,3.97 -10.66,-2.16l-13.77 -9.65c0.79,13.9 8.05,22.61 8.05,22.61l2.68 -0.05 0.08 -5.9 10.57 5.95 15.07 0z"/>
   <path class="fil5" d="M680.47 151.36c2.75,0 4.86,-0.97 4.89,-0.98 0.11,-0.05 0.15,-0.18 0.1,-0.28 -0.05,-0.11 -0.17,-0.15 -0.28,-0.1 -0.04,0.02 -4.64,2.12 -9.06,-0.03 -0.11,-0.05 -0.23,0 -0.28,0.1 -0.06,0.11 -0.01,0.23 0.1,0.28 1.55,0.76 3.12,1.01 4.53,1.01z"/>
   <path class="fil5" d="M660.6 167.09c0.11,0 0.2,-0.08 0.21,-0.19 1.43,-15.69 -6.07,-20.84 -6.14,-20.89 -0.1,-0.07 -0.23,-0.04 -0.3,0.06 -0.06,0.09 -0.04,0.22 0.06,0.29 0.07,0.05 7.36,5.08 5.96,20.5 -0.01,0.11 0.08,0.22 0.19,0.23l0.02 0z"/>
   <path class="fil5" d="M702.66 294.83l0.1 -0.02c0.1,-0.06 0.14,-0.19 0.08,-0.29l-21.38 -38.99c-0.06,-0.1 -0.19,-0.14 -0.29,-0.09 -0.1,0.06 -0.14,0.19 -0.08,0.29l21.38 38.99c0.04,0.07 0.11,0.11 0.19,0.11z"/>
   <path class="fil6" d="M672.21 317.08l0 0 0.98 -3.46 -0.98 3.46zm-30.36 -3.1l-0.25 -0.03 -0.11 -4.43 0.32 0 0.04 4.46z"/>
   <polygon class="fil7" points="672.21,317.08 641.85,313.98 641.81,309.52 674.36,309.52 673.19,313.62 "/>
   <polygon class="fil6" points="724.51,313.03 723.48,309.69 "/>
   <polygon class="fil7" points="695.93,317.24 691.89,309.52 723.42,309.52 723.48,309.69 724.51,313.03 "/>
   <path class="fil8" d="M680.07 142.26c0,0 -4.21,2.23 -4.21,-1.46l4.21 1.46z"/>
   <path class="fil7" d="M679.94 138.49l-2.82 -0.89c0,0 0.45,-0.44 1.08,-0.44 0.51,0 1.14,0.29 1.74,1.33z"/>
   <path class="fil5" d="M680.52 131.02l0.03 0c0.11,-0.02 0.2,-0.12 0.18,-0.24 0,-0.03 -0.1,-0.88 -0.85,-1.33 -0.65,-0.39 -1.55,-0.36 -2.7,0.09 -0.11,0.04 -0.16,0.17 -0.11,0.27 0.04,0.11 0.16,0.17 0.27,0.12 1.01,-0.4 1.79,-0.44 2.31,-0.12 0.58,0.34 0.66,1.01 0.66,1.02 0.02,0.11 0.11,0.19 0.21,0.19z"/>
   <path class="fil5" d="M677.86 132.23c-0.18,0.54 -0.13,1.03 0.11,1.11 0.24,0.08 0.57,-0.29 0.75,-0.83 0.17,-0.53 0.12,-1.02 -0.11,-1.1 -0.24,-0.08 -0.58,0.29 -0.75,0.82z"/>
   <path class="fil5" d="M686.05 133.01l0.02 0c0.12,-0.01 0.2,-0.12 0.19,-0.23 0,-0.04 -0.1,-0.88 -0.85,-1.34 -0.65,-0.39 -1.56,-0.36 -2.7,0.09 -0.11,0.05 -0.16,0.17 -0.12,0.28 0.05,0.11 0.17,0.16 0.28,0.12 1.01,-0.4 1.79,-0.44 2.32,-0.13 0.57,0.35 0.65,1.02 0.65,1.02 0.01,0.11 0.1,0.19 0.21,0.19z"/>
   <path class="fil5" d="M683.39 134.23c-0.18,0.53 -0.13,1.03 0.11,1.1 0.24,0.08 0.57,-0.29 0.74,-0.82 0.18,-0.53 0.13,-1.03 -0.11,-1.11 -0.23,-0.07 -0.57,0.29 -0.74,0.83z"/>
   <path class="fil5" d="M626.39 40.44c0.05,0 0.1,-0.02 0.14,-0.06 0.09,-0.08 0.09,-0.22 0.01,-0.3 -0.05,-0.05 -4.98,-5.23 -6.2,-15.54 -0.05,-0.42 0.21,-0.69 0.47,-0.8 0.26,-0.11 0.67,-0.12 0.97,0.22l4.45 5.3c0.07,0.09 0.2,0.1 0.29,0.02 0.09,-0.07 0.1,-0.21 0.03,-0.3l-4.45 -5.29c-0.36,-0.42 -0.95,-0.56 -1.46,-0.34 -0.5,0.22 -0.78,0.71 -0.72,1.24 1.23,10.46 6.26,15.73 6.31,15.78 0.05,0.05 0.1,0.07 0.16,0.07z"/>
   <polygon class="fil5" points="681.27,178.16 687.25,179.1 691.55,151.81 685.58,150.87 "/>
   <path class="fil1" d="M681.74 148.59c0,3.94 3.19,7.13 7.13,7.13 3.94,0 7.13,-3.19 7.13,-7.13 0,-3.94 -3.19,-7.13 -7.13,-7.13 -3.94,0 -7.13,3.19 -7.13,7.13z"/>
   <path class="fil3" d="M702.39 169.81c0,0 -12.35,-12.19 -16.17,-12.78 -3.82,-0.6 -4.42,0.94 -2.51,5.66 1.91,4.73 6.8,12 6.8,12l11.88 -4.88z"/>
   <path class="fil5" d="M725.5 191.55c0.06,0 0.11,-0.02 0.16,-0.06 0.07,-0.09 0.07,-0.23 -0.02,-0.3 -0.14,-0.13 -13.94,-12.58 -17.77,-16.4 -4.04,-4.02 -13.15,-12.53 -15.51,-14.07 -3.12,-2.74 -7.3,-5.07 -9.07,-3.65 -1.75,1.41 -0.53,5.94 3.62,13.46 0.05,0.1 0.19,0.13 0.29,0.08 0.1,-0.06 0.14,-0.19 0.08,-0.29 -5.3,-9.59 -4.61,-12.21 -3.72,-12.92 1.49,-1.2 5.51,0.99 8.55,3.66 2.36,1.54 11.43,10.02 15.46,14.03 3.84,3.83 17.65,16.29 17.79,16.41 0.04,0.04 0.09,0.05 0.14,0.05z"/>
   <path class="fil5" d="M694.03 169.24c0.05,0 0.09,-0.02 0.14,-0.05 0.09,-0.08 0.09,-0.21 0.02,-0.3l-10.32 -12.18c-0.07,-0.08 -0.21,-0.1 -0.29,-0.02 -0.09,0.08 -0.11,0.21 -0.03,0.3l10.32 12.17c0.04,0.05 0.1,0.08 0.16,0.08z"/>
   <path class="fil5" d="M681.85 214.71c0.66,0.02 1.26,0.11 1.81,0.26 4.03,1.11 6.29,5.54 6.75,9.44 0.29,2.48 -0.21,4.53 -1.24,5.09 -0.68,0.37 -1.58,0.11 -2.62,-0.74 -2.81,-2.31 -4.17,-7.66 -4.7,-14.05zm-65.37 218.18c0.1,0 0.19,-0.08 0.2,-0.19 0.05,-0.42 5.15,-43.05 13.27,-89.17 10.73,-61.02 21.86,-100.42 32.18,-113.95 8.87,-11.64 15.14,-14.76 19.26,-14.87 0.55,6.5 1.97,11.97 4.89,14.37 1.5,1.23 2.51,1.11 3.09,0.79 1.2,-0.65 1.77,-2.82 1.46,-5.51 -0.47,-4.04 -2.84,-8.64 -7.06,-9.8 -0.59,-0.16 -1.24,-0.26 -1.95,-0.27 -1.15,-15 2.16,-35.4 2.2,-35.69 0.02,-0.12 -0.06,-0.23 -0.17,-0.25 -0.12,-0.02 -0.22,0.06 -0.24,0.18 -0.2,1.19 -3.41,20.98 -2.25,35.76 -4.24,0.13 -10.63,3.31 -19.57,15.03 -13.08,17.16 -24.77,71.54 -32.26,114.14 -8.12,46.13 -13.22,88.77 -13.27,89.19 -0.01,0.12 0.07,0.22 0.19,0.24l0.03 0z"/>
   <polygon class="fil2" points="1270.49,427.4 1264.71,427.4 1261.91,291.42 1275.93,291.42 "/>
   <path class="fil5" d="M1265.19 429.99c0,1.43 1.16,2.59 2.59,2.59 1.44,0 2.59,-1.16 2.59,-2.59 0,-1.43 -1.15,-2.59 -2.59,-2.59 -1.43,0 -2.59,1.16 -2.59,2.59z"/>
   <polygon class="fil5" points="1110.45,432.68 1116.09,432.68 1116.09,296.82 1110.45,296.82 "/>
   <polygon class="fil5" points="1164.03,432.68 1169.67,432.68 1169.67,296.82 1164.03,296.82 "/>
   <polygon class="fil5" points="1101.99,295.88 1176.73,295.88 1176.73,286.95 1101.99,286.95 "/>
   <path class="fil0" d="M1128.53 183.19l-0.21 -8.89c0,0 -3.41,-16.42 7.03,-20.33 10.45,-3.91 19.13,5.69 20.34,9.46 2.48,7.74 -1.71,11.72 -1.71,11.72 0,0 -20.02,11.92 -25.45,8.04z"/>
   <path class="fil4" d="M1125.67 250.18c0,0 -22.33,28.9 -15.17,46.66 7.14,17.76 32.8,38.48 32.8,38.48 0,0 -28.36,24.17 -33.79,31.57 -5.42,7.4 -11.1,17.02 -11.1,17.02l15.54 14.55c0,0 47.36,-37 56.24,-47.6 8.88,-10.61 -19.24,-62.16 -19.24,-62.16 0,0 28.61,18.99 37.49,27.62 8.88,8.64 30.77,31.33 45.01,42.68 14.26,11.42 35.17,21.79 35.17,21.79l11.76 -19.8c0,0 -39.39,-35.05 -48.03,-46.64 -8.63,-11.59 -24.29,-25.81 -34.04,-32.31 -11.1,-7.4 -44.95,-30.48 -44.95,-30.48l-27.69 -1.38z"/>
   <path class="fil9" d="M1113.01 222.7l12.66 27.48 27.57 1.42c0,0 10.63,-3.24 10.21,-16.16 -0.01,-0.5 14.73,12.84 14.73,12.84 0,0 -11.06,10 -14.15,16.41 -3.09,6.42 1.08,9.49 1.08,9.49l8.65 2.92c0,0 24.38,-1.97 28.19,-14.09 3.8,-12.12 -3.81,-22.34 -14.74,-36.36 -10.93,-14.02 -23.53,-24.71 -34.46,-27.56 -10.92,-2.85 -25.75,-4.17 -25.75,-4.17l-14.55 1.21c-9.76,0.82 -18.2,7.15 -21.68,16.3 -5.53,14.52 -12.19,35.3 -8.06,42.09 9.4,17.39 40.51,20.86 46.27,18.8 5.77,-2.06 11.39,-7.83 -1.77,-16.68 -13.17,-8.84 -19.55,-15.01 -19.55,-15.01l5.35 -18.93z"/>
   <path class="fil10" d="M1141.24 191.68l-1.91 4.77c0,0 -1.45,4.79 -6.76,3.78 -6.6,-1.13 -6.75,-5.55 -6.75,-5.55l2.79 -11.71c0,0 3.04,1.8 4.19,-1.35 1.14,-3.14 -2.42,-6.89 0,-10.66 2.39,-3.72 5.05,1.92 5.61,2.35 3.13,2.34 6.12,1.84 9.11,-0.36 2.72,-2.02 6.92,-8.31 7.62,-5.46 0.96,3.87 -2.28,10.32 -3.45,13.69 -2.69,7.75 -6.64,10.69 -10.45,10.5z"/>
   <polygon class="fil11" points="1139.65,195.66 1139.65,195.66 1141.24,191.68 "/>
   <path class="fil12" d="M1138.96 195.69c-6.71,0 -5.83,-9.75 -5.83,-9.75 0,0 3.49,5.72 8.11,5.74l-1.59 3.98c-0.24,0.02 -0.48,0.03 -0.69,0.03z"/>
   <path class="fil13" d="M1143.65 186.84c-0.2,0 -0.41,-0.03 -0.62,-0.09 -0.6,-0.19 -1.07,-0.66 -1.36,-1.4 -0.04,-0.11 0.01,-0.24 0.12,-0.28 0.03,-0.01 0.05,-0.02 0.08,-0.02 0.07,0 0.15,0.05 0.19,0.14 0.25,0.62 0.62,1 1.09,1.15 0.17,0.05 0.33,0.07 0.5,0.07 0.79,0 1.53,-0.48 1.54,-0.48 0.03,-0.03 0.08,-0.04 0.12,-0.04 0.07,0 0.14,0.03 0.18,0.1 0.06,0.09 0.03,0.22 -0.06,0.29 -0.05,0.03 -0.86,0.56 -1.78,0.56z"/>
   <path class="fil4" d="M1135.11 199.79c0,0 -11.86,-12.25 -18.2,-7.26 -6.34,5 -4.08,11.35 3.22,14.14 6.08,3.11 14.98,-6.88 14.98,-6.88z"/>
   <path class="fil14" d="M1113.91 196.01c0.61,-1.19 1.58,-2.37 3,-3.48 1.07,-0.85 2.31,-1.19 3.6,-1.19 0.03,0 0.07,0 0.1,0 -0.03,0 -0.06,0 -0.09,0 -1.3,0 -2.53,0.35 -3.61,1.19 -1.42,1.11 -2.39,2.29 -3,3.48l0 0z"/>
   <path class="fil15" d="M1113.2 199.02c-0.02,-0.99 0.21,-2 0.71,-3.01l0 0c-0.5,1.01 -0.73,2.02 -0.71,3.01z"/>
   <path class="fil16" d="M1122.7 207.26c-0.89,0 -1.75,-0.18 -2.57,-0.59 -4.31,-1.65 -6.86,-4.54 -6.93,-7.65 -0.02,-0.99 0.21,-2 0.71,-3.01 0.61,-1.19 1.58,-2.37 3,-3.48 1.08,-0.84 2.31,-1.19 3.61,-1.19 0.03,0 0.06,0 0.09,0 0.44,0 0.88,0.05 1.33,0.12 -0.83,0.17 -1.63,0.5 -2.34,1.07 -6.35,4.99 -4.09,11.34 3.22,14.14 0.41,0.21 0.85,0.36 1.28,0.45 -0.47,0.09 -0.95,0.14 -1.4,0.14z"/>
   <path class="fil4" d="M1134.57 199.38c0,0 9.31,-4.99 13.9,4.46 4.6,9.45 6.52,20.67 -0.1,19.45 -6.61,-1.21 -13.8,-23.91 -13.8,-23.91z"/>
   <polygon class="fil0" points="1313.34,404.1 1315.31,401.58 1318.49,401.77 1316.7,399.13 1317.87,396.16 1314.8,397.04 1312.34,395.02 1312.23,398.21 1309.54,399.92 1312.54,401.01 "/>
   <path class="fil2" d="M1248.12 255.62l122.59 -0.72c32.36,-0.19 55.06,-31.98 44.72,-62.65l-6.03 -17.87 -41.15 0.59c-35.66,0.24 -69.08,-16.72 -88.98,-45.17l-8.9 -12.71 -60.29 0 38.04 138.53z"/>
   <path class="fil17" d="M1180.14 309.37c0,0 -5.1,-3.78 -10.46,-7.69l0 -0.06c3.58,2.57 7.22,5.25 10.46,7.75l0 0z"/>
   <path class="fil18" d="M1169.68 301.68c-1.19,-0.86 -2.38,-1.73 -3.54,-2.57 1.16,0.82 2.34,1.66 3.54,2.51l0 0.06z"/>
   <path class="fil18" d="M1156.64 292.53c-2.31,-1.49 -4.79,-3.08 -5.54,-3.55 -0.1,-0.19 -0.15,-0.28 -0.15,-0.28 0,0 2.26,1.49 5.69,3.83z"/>
   <path class="fil19" d="M1180.14 309.37c-3.24,-2.5 -6.88,-5.18 -10.46,-7.75 -1.2,-0.85 -2.38,-1.69 -3.54,-2.51 -2.22,-1.6 -4.3,-3.08 -5.87,-4.17 -0.83,-0.58 -2.2,-1.47 -3.63,-2.41 -3.43,-2.34 -5.69,-3.83 -5.69,-3.83 0,0 0.05,0.09 0.15,0.28 -0.15,-0.1 -0.23,-0.15 -0.23,-0.15l-6.58 -10.81 35.85 31.35z"/>
   <path class="fil5" d="M1163.5 234.75c0.12,0 0.2,-0.08 0.2,-0.2 0.55,-9.41 -6.98,-18.93 -7.06,-19.02 -0.07,-0.09 -0.21,-0.11 -0.3,-0.03 -0.09,0.07 -0.11,0.2 -0.03,0.29 0.07,0.1 7.5,9.49 6.98,18.74 -0.01,0.12 0.08,0.22 0.2,0.22l0.01 0z"/>
   <path class="fil16" d="M1145.2 210.55c-2.4,0 -8.17,-11.06 -8.17,-11.06 0,0 9.94,2.94 9.15,9.49 -0.14,1.11 -0.49,1.57 -0.98,1.57z"/>
   <path class="fil16" d="M1130.74 198.6c0,0 -10.15,-0.69 -8.16,-2.9 0.36,-0.39 0.84,-0.55 1.4,-0.55 2.59,0 6.76,3.45 6.76,3.45z"/>
   <path class="fil10" d="M1130.74 259.29c-2.19,0.9 -2.81,9.75 -0.83,13.08 0.39,0.65 6.77,-1.05 6.77,-1.05 1.6,1.92 2.19,4.72 3.12,6.32 2.48,4.26 2.86,0.11 0.99,-4.92 0,0 3.96,8.5 5.21,7.44 1.15,-0.98 -0.13,-4.32 -1.51,-8.07 -0.1,-0.27 0.35,-0.46 0.41,-0.19 0.95,4.06 2.78,7.5 4.38,6.21 0.71,-0.58 -0.44,-3.52 -1.87,-6.93 -0.2,-0.48 0.5,-0.86 0.75,-0.41 1.22,2.21 2.36,4.79 3.89,4.56 2.44,-0.38 -2.66,-9.56 -4.61,-12.16 -2.94,-3.9 -3.69,-9.21 -16.7,-3.88z"/>
   <path class="fil10" d="M1173.22 263.58c1.9,1.44 4.57,5.8 3.51,9.53l-3.78 5.09c-1.05,2.27 -0.9,5.13 -1.39,6.91 -1.3,4.76 -2.73,0.85 -2.23,-4.49 0,0 -1.64,9.23 -3.11,8.53 -1.35,-0.65 -0.98,-4.2 -0.63,-8.19 0.03,-0.28 -0.45,-0.35 -0.44,-0.07 0.13,4.17 -0.74,7.96 -2.62,7.12 -0.84,-0.37 -0.49,-3.51 0.01,-7.17 0.07,-0.51 -0.71,-0.7 -0.82,-0.2 -0.61,2.45 -1.05,5.23 -2.59,5.4 -2.45,0.27 0.1,-9.92 1.32,-12.93 1.82,-4.53 4.04,-16.18 12.77,-9.53z"/>
   <path class="fil20" d="M1160 338.78c-0.08,0 -0.15,-0.04 -0.18,-0.11 -1.51,-2.86 -7.22,-3.41 -11.37,-3.41 -2.54,0 -4.48,0.21 -4.54,0.21 0,0 -0.01,0 -0.02,0 -0.1,0 -0.19,-0.08 -0.21,-0.18 -0.01,-0.12 0.08,-0.23 0.19,-0.24 0.21,-0.02 2.14,-0.22 4.64,-0.22 4.24,0 10.08,0.58 11.68,3.64 0.05,0.1 0.01,0.23 -0.09,0.28l-0.1 0.03z"/>
   <polygon class="fil2" points="1203.86,426.97 1198.08,426.97 1195.28,290.99 1209.29,290.99 "/>
   <path class="fil13" d="M1136.09 174.59c-0.11,0 -0.21,-0.09 -0.21,-0.21 0,-0.01 -0.01,-1.18 -0.58,-1.75 -0.19,-0.2 -0.43,-0.29 -0.73,-0.29l0 0c-0.12,0 -0.22,-0.1 -0.22,-0.21 0,-0.12 0.1,-0.22 0.22,-0.22 0.41,0.01 0.75,0.14 1.03,0.42 0.69,0.69 0.7,2 0.7,2.05 0,0.12 -0.09,0.21 -0.21,0.21z"/>
   <path class="fil12" d="M1147.38 183.01l-3.79 -0.93c0,0 0.99,-0.33 1.96,-0.33 0.85,0 1.7,0.26 1.83,1.26z"/>
   <path class="fil0" d="M1149.1 178.31l0.07 -0.01c2.34,-0.87 3.33,-0.05 3.34,-0.04 0.09,0.07 0.22,0.06 0.3,-0.02 0.08,-0.09 0.07,-0.22 -0.02,-0.3 -0.05,-0.04 -1.16,-1 -3.77,-0.04 -0.11,0.04 -0.16,0.16 -0.12,0.27 0.03,0.09 0.11,0.14 0.2,0.14z"/>
   <path class="fil0" d="M1146.22 178.1l0.03 0c0.12,-0.02 0.2,-0.12 0.19,-0.24 -0.01,-0.03 -0.48,-3 -4.83,-2.71 -0.12,0 -0.2,0.1 -0.2,0.22 0.01,0.12 0.12,0.2 0.23,0.2 3.96,-0.27 4.36,2.25 4.37,2.35 0.02,0.11 0.11,0.18 0.21,0.18z"/>
   <path class="fil5" d="M1142.57 178.43c-0.22,0.48 -0.21,0.94 0,1.04 0.23,0.1 0.57,-0.21 0.79,-0.69 0.21,-0.48 0.21,-0.95 -0.01,-1.04 -0.22,-0.1 -0.57,0.21 -0.78,0.69z"/>
   <path class="fil5" d="M1149.07 180.88c-0.21,0.48 -0.21,0.94 0.01,1.04 0.22,0.1 0.56,-0.21 0.78,-0.69 0.21,-0.48 0.21,-0.94 -0.01,-1.04 -0.22,-0.1 -0.56,0.21 -0.78,0.69z"/>
   <path class="fil5" d="M1198.56 429.56c0,1.44 1.15,2.6 2.59,2.6 1.43,0 2.59,-1.16 2.59,-2.6 0,-1.43 -1.16,-2.59 -2.59,-2.59 -1.44,0 -2.59,1.16 -2.59,2.59z"/>
   <polygon class="fil2" points="1407.37,427.44 1401.6,427.44 1398.79,291.46 1412.82,291.46 "/>
   <path class="fil5" d="M1402.07 430.03c0,1.44 1.17,2.6 2.59,2.6 1.44,0 2.6,-1.16 2.6,-2.6 0,-1.43 -1.16,-2.59 -2.6,-2.59 -1.42,0 -2.59,1.16 -2.59,2.59z"/>
   <polygon class="fil2" points="1196.47,293.69 1429.56,293.69 1429.56,254.52 1196.47,254.52 "/>
   <polygon class="fil2" points="1166.85,296.82 1432.67,296.82 1432.67,290.99 1166.85,290.99 "/>
   <polygon class="fil21" points="1267.78,136.36 1261.91,136.36 1222.84,254.51 1230,254.51 "/>
   <path class="fil5" d="M1275.75 296.1c0.12,0 0.21,-0.1 0.21,-0.22l0.18 -41.37c0,-0.11 -0.1,-0.21 -0.21,-0.21l0 0c-0.12,0 -0.21,0.09 -0.21,0.21l-0.18 41.37c0,0.12 0.11,0.22 0.21,0.22z"/>
   <path class="fil21" d="M1187.31 306.92l29.88 0c5.46,0 9.88,-4.43 9.88,-9.88l0 -1.16 -48.46 0 0 2.33c0,4.81 3.9,8.71 8.7,8.71z"/>
   <path class="fil21" d="M1389.14 307.39l29.88 0c5.45,0 9.88,-4.43 9.88,-9.88l0 -1.16 -48.47 0 0 2.33c0,4.81 3.9,8.71 8.71,8.71z"/>
   <path class="fil21" d="M1252.26 306.92l29.87 0c5.46,0 9.89,-4.43 9.89,-9.88l0 -1.16 -48.47 0 0 2.33c0,4.81 3.9,8.71 8.71,8.71z"/>
   <path class="fil10" d="M1099.99 385.38l-11.32 11.33 7.89 18.76 9.48 6.68 -2.54 -14.54c-0.31,-1.79 0.22,-3.62 1.45,-4.96l6.23 -6.78 -11.19 -10.49z"/>
   <path class="fil1" d="M1090.55 394.83c0,0 -6.84,3.91 -7.55,5.82 -0.33,0.87 3.43,6.79 7.75,13.15 0.99,1.45 1.27,-0.5 2.28,0.94 4.27,6.15 1.91,7.41 9.54,15.89 1.38,1.52 5.27,2.43 7.88,2.05 2.7,-0.4 -0.35,-4.57 -2.07,-9.45 -1.84,-5.2 -2.45,-11.11 -2.45,-11.11l-2.74 0.83 2.85 9.2 -7.63 -8.35 -7.86 -18.97z"/>
   <path class="fil10" d="M1270.89 376.99l13.17 10.44 17.73 -9.99 5.54 -10.2 -14.15 4.2c-1.74,0.52 -3.62,0.2 -5.09,-0.87l-9.21 -7.06 -7.99 13.48z"/>
   <path class="fil1" d="M1281.97 385.77c0,0 4.68,6.35 6.66,6.84 0.89,0.22 6.34,-4.19 12.16,-9.21 1.34,-1.15 -0.64,-1.21 0.68,-2.38 5.62,-4.94 7.14,-2.74 14.68,-11.3 1.36,-1.53 1.81,-5.51 1.14,-8.05 -0.7,-2.65 -4.5,0.86 -9.16,3.14 -4.95,2.42 -10.75,3.7 -10.75,3.7l1.15 2.64 8.8 -3.91 -7.42 8.55 -17.94 9.98z"/>
   <path class="fil4" d="M975.01 43.63c0,1.88 1.51,3.39 3.39,3.39 1.87,0 3.39,-1.51 3.39,-3.39 0,-1.87 -1.52,-3.39 -3.39,-3.39 -1.88,0 -3.39,1.52 -3.39,3.39z"/>
   <path class="fil4" d="M164.73 56.85c0,0.94 0.76,1.69 1.7,1.69 0.94,0 1.69,-0.75 1.69,-1.69 0,-0.94 -0.75,-1.7 -1.69,-1.7 -0.94,0 -1.7,0.76 -1.7,1.7z"/>
   <path class="fil22" d="M1400.1 508.59l0 0 -0.04 0c-0.19,-0.02 -0.32,-0.17 -0.32,-0.34l0.74 0 -0.01 0.04c-0.02,0.17 -0.18,0.3 -0.37,0.3zm21.47 -0.34l-0.35 0 0.35 0 0 0z"/>
   <path class="fil4" d="M497.12 274.93c0,0.93 0.76,1.69 1.69,1.69 0.94,0 1.7,-0.76 1.7,-1.69 0,-0.94 -0.76,-1.7 -1.7,-1.7 -0.93,0 -1.69,0.76 -1.69,1.7z"/>
   <path class="fil3" d="M1071.97 140.43c0,0 -0.78,-8.48 3.85,-14.46 4.64,-5.97 4.04,1.74 4.04,1.74l-7.89 12.72z"/>
   <polygon class="fil4" points="968.94,282.87 963.11,280.56 966.41,267.57 971.14,270.2 "/>
   <path class="fil5" d="M967.19 267.98l-4.08 12.58c0,0 -11.69,-4.64 -16.01,-5.15 -4.32,-0.5 -14.7,7.67 -15.09,3.76 -0.41,-3.9 0.8,-13.67 6.54,-13.15 5.74,0.52 16.86,-0.46 16.86,-0.46l-12.69 -8.18 1.37 -2.04 10.51 3.82c0,0 6.38,1.4 9.53,3.61 3.15,2.2 3.06,5.21 3.06,5.21z"/>
   <polygon class="fil4" points="1052.45,396.57 1050.96,402.16 1037.93,398.68 1040.52,393.92 "/>
   <path class="fil5" d="M1038.33 397.89l12.63 3.97c0,0 -4.54,11.73 -5,16.05 -0.46,4.32 7.81,14.62 3.9,15.06 -3.9,0.44 -13.68,-0.68 -13.21,-6.42 0.45,-5.75 -0.62,-16.85 -0.62,-16.85l-8.07 12.76 -2.05 -1.35 3.72 -10.54c0,0 1.34,-6.4 3.52,-9.56 2.17,-3.17 5.18,-3.12 5.18,-3.12z"/>
   <path class="fil9" d="M1051.16 218.6l-33.34 3.57c0,0 -10.69,21.37 -12.73,31.3 -2.03,9.93 4.83,18.32 4.83,18.32l-39.95 -4.58 -3.56 19.6c0,0 60.82,24.94 72.78,29.02 11.97,4.07 15.27,-8.91 15.27,-8.91l2.3 14.76c0,0 -11.46,20.1 -14.26,33.85 -2.79,13.74 -5.85,38.68 -5.85,38.68l17.81 5.35c0,0 32.33,-64.39 32.84,-80.17 0.25,-7.98 -3.38,-36.19 -12.58,-59.62 -9,-22.93 -23.56,-41.17 -23.56,-41.17z"/>
   <path class="fil0" d="M1049.5 217.96l-31.36 7.44 -31.37 -36.78 19.17 -14.44c0,0 28.9,18.73 43.56,43.78z"/>
   <path class="fil2" d="M1025.8 268.73c0,0 2.42,-27.06 -6.61,-45.34 -9.02,-18.28 -31.79,-41.1 -31.79,-41.1 0,0 -6.79,4.39 -10.84,10.44 -6.25,9.33 -25.22,41.47 -14.84,53.89 10.38,12.41 38.37,-5.87 38.37,-5.87l-6.33 20.08 32.04 7.9z"/>
   <path class="fil2" d="M999.2 175.95c0,0 1.47,1.61 2.97,3.14 6.4,6.49 19.39,27.24 24.68,36.55 6.55,11.51 21.98,42.48 21.98,42.48l26.85 -14.67c0,0 -28.2,-29.78 -30.47,-34.75 -2.25,-4.96 0.37,-6.92 0.37,-6.92 0,0 14.76,6.7 23.56,-1.88 8.79,-8.57 21.26,-44.3 21.26,-44.3l-9.77 -8.68 -25.49 31.32c0,0 -30.89,-20.11 -55.94,-2.29z"/>
   <path class="fil23" d="M1045.89 202.46c-0.11,0 -0.21,-0.08 -0.22,-0.2 0,0 0,-0.17 -0.02,-0.45 0.08,0.04 0.23,0.1 0.44,0.18 0,0.14 0.01,0.23 0.01,0.25 0.01,0.12 -0.08,0.22 -0.2,0.22l-0.01 0z"/>
   <path class="fil24" d="M1046.09 201.99c-0.21,-0.08 -0.36,-0.14 -0.44,-0.18 -0.1,-1.4 -0.48,-5.72 -1.38,-8.04 -1.09,-2.79 -9.23,-10.95 -9.31,-11.03 -0.09,-0.09 -0.09,-0.22 0,-0.3 0.04,-0.04 0.1,-0.06 0.15,-0.06 0.05,0 0.1,0.02 0.14,0.06 0.34,0.34 8.3,8.31 9.4,11.17 1,2.55 1.36,7.24 1.44,8.38z"/>
   <path class="fil4" d="M991.58 170.16c0,0 6.89,-11.12 -2.19,-19.88 -9.09,-8.77 -16.4,-5.68 -21.27,-3.25 -4.87,2.44 -7.86,7.04 -8.12,12.18 -0.73,6.6 1.22,31.81 31.58,10.95z"/>
   <path class="fil3" d="M1000.82 177.9l-8.53 -10.22c0,0 1.79,-8.4 -2.69,-10.78 -5.7,-2.02 -3.21,2.5 -5.81,5.47 -1.56,1.77 -5.65,-3.63 -8.67,-4.9 -3.01,-1.27 -8.84,2.44 -9.31,7.51 -0.26,2.77 0.44,5.91 3.28,8.35 2.2,1.88 2.31,5.27 6.35,6.97 5.77,2.8 9.56,-0.56 9.56,-0.56l6.14 6.54c0,0 6.51,-1.56 9.68,-8.38z"/>
   <path class="fil5" d="M1054.46 307.13c0.09,0 0.17,-0.05 0.2,-0.13 6.13,-15.18 -3.41,-43.21 -3.5,-43.49 -0.04,-0.11 -0.16,-0.17 -0.27,-0.13 -0.11,0.04 -0.17,0.16 -0.14,0.27 0.1,0.28 9.59,28.16 3.52,43.19 -0.05,0.11 0.01,0.23 0.12,0.27l0.07 0.02z"/>
   <path class="fil5" d="M1040.5 282.33c0.06,0 0.12,-0.03 0.17,-0.08 0.07,-0.09 0.06,-0.22 -0.04,-0.3 -0.1,-0.08 -10.17,-8.01 -30.68,-10.37 -0.12,-0.01 -0.22,0.08 -0.24,0.19 -0.01,0.12 0.07,0.22 0.19,0.24 20.39,2.33 30.37,10.19 30.47,10.27 0.03,0.03 0.08,0.05 0.13,0.05z"/>
   <path class="fil5" d="M986.77 222.18c0.08,0 0.16,-0.04 0.19,-0.12l5.67 -12.66c0.05,-0.11 0,-0.23 -0.11,-0.28 -0.11,-0.05 -0.24,0 -0.28,0.11l-5.67 12.66c-0.04,0.1 0,0.23 0.11,0.28l0.09 0.01z"/>
   <path class="fil4" d="M968.12 147.03c0,0 -14.63,-24.86 -33.74,-10.49 -14.33,10.78 1.61,24.91 -2.51,47.03 -4.12,22.11 -20.78,18.68 -20.78,18.68 0,0 38.47,21.13 38.47,-18.15 0,-47.56 16.2,-32.16 16.2,-32.16l2.36 -4.91z"/>
   <path class="fil7" d="M987.4 182.29l-2.4 -2.55c0,0 1.41,-1.16 2.64,-3.04 1.33,-2.02 1.96,-6.7 1.96,-6.7 4.48,7.9 -2.2,12.29 -2.2,12.29z"/>
   <path class="fil21" d="M1005.07 206.59c5.02,-3.18 10.56,-4.86 16.1,-5.17 -1.36,-9.1 2.6,-18.58 10.88,-23.82 11.18,-7.08 25.98,-3.76 33.06,7.42 7.07,11.18 3.75,25.98 -7.42,33.06 -1.4,0.88 -2.83,1.6 -4.32,2.16 7.49,15.25 2.46,34.01 -12.23,43.3 -15.72,9.96 -36.55,5.29 -46.51,-10.44 -9.96,-15.72 -5.28,-36.55 10.44,-46.51z"/>
   <polygon class="fil1" points="988.32,246.83 1004.6,238.75 997.17,219.58 985,222.7 "/>
   <path class="fil5" d="M971.14 225.83l0.05 -0.01 26.02 -6.04c0.12,-0.02 0.19,-0.14 0.17,-0.25 -0.03,-0.11 -0.15,-0.18 -0.26,-0.16l-26.02 6.04c-0.12,0.02 -0.19,0.14 -0.16,0.25 0.02,0.1 0.11,0.17 0.2,0.17z"/>
   <polygon class="fil21" points="1087.35,136.73 1103.08,116.28 1089.84,108.11 1077.88,130.88 "/>
   <path class="fil8" d="M981.1 173.88c0,0 0.95,3.45 -3.11,2.26l3.11 -2.26z"/>
   <path class="fil7" d="M975.04 173.1c0,0 -1.85,-0.74 2.08,-2.39l-2.08 2.39z"/>
   <path class="fil4" d="M973.15 167.5l0.01 0c0.11,0 0.21,-0.1 0.2,-0.21 -0.01,-0.79 0.21,-1.42 0.66,-1.88 0.81,-0.85 2.11,-0.87 2.13,-0.87 0.12,0 0.21,-0.1 0.2,-0.21 0,-0.12 -0.08,-0.23 -0.21,-0.21 -0.06,0 -1.49,0.02 -2.43,0.99 -0.53,0.55 -0.79,1.29 -0.77,2.19 0.01,0.11 0.1,0.2 0.21,0.2z"/>
   <path class="fil4" d="M968.83 172.32l0 0c0.12,0 0.21,-0.1 0.21,-0.21 -0.02,-0.79 0.2,-1.42 0.65,-1.88 0.81,-0.85 2.12,-0.87 2.13,-0.87 0.12,0 0.21,-0.1 0.21,-0.22 0,-0.11 -0.1,-0.2 -0.21,-0.2l0 0c-0.06,0 -1.5,0.02 -2.43,0.99 -0.53,0.55 -0.79,1.28 -0.78,2.19 0.01,0.11 0.1,0.2 0.22,0.2z"/>
   <path class="fil8" d="M1014.4 229.45c0,5.45 4.41,9.87 9.86,9.87 5.45,0 9.88,-4.42 9.88,-9.87 0,-5.45 -4.43,-9.87 -9.88,-9.87 -5.45,0 -9.86,4.42 -9.86,9.87z"/>
   <polygon class="fil4" points="1026.53,235.24 1089.12,133.86 1079.64,128.01 1017.06,229.38 "/>
   <path class="fil8" d="M1021.92 232.6c0.07,0 0.13,-0.04 0.17,-0.11l67.84 -115.97 -0.37 -0.21 -69.55 114.9c-0.06,0.1 -0.03,0.23 0.07,0.29 0.09,0.06 0.23,0.03 0.29,-0.07l55.06 -90.96 -53.7 91.81c-0.06,0.1 -0.02,0.23 0.08,0.29l0.11 0.03z"/>
   <path class="fil8" d="M1025.21 234.63c0.07,0 0.15,-0.04 0.18,-0.1l69.36 -115.35 -0.36 -0.22 -71 114.33c-0.07,0.1 -0.04,0.23 0.07,0.29 0.1,0.06 0.23,0.04 0.29,-0.06l55.47 -89.33 -54.19 90.12c-0.06,0.1 -0.03,0.23 0.07,0.29l0.11 0.03z"/>
   <path class="fil3" d="M1087.75 153.23l-6.65 -5.91c0,0 -4.46,-4.69 -1.84,-5.16 2.63,-0.48 3.89,1.01 3.89,1.01 0,0 -5.02,-5.11 -3.89,-6.44 1.89,-2.21 6.32,2.87 6.32,2.87 0,0 -6.2,-6.46 -3.27,-8.07 1.8,-1 5.89,4.09 5.89,4.09 0,0 -4.57,-7.02 -0.64,-6.54 2.63,0.32 14.25,13.67 0.19,24.15z"/>
   <path class="fil3" d="M998.1 221.97l5.01 12.97c0,0 16.71,-4.15 22.1,-7.6 5.4,-3.45 1.16,-2.92 -3.35,-1.73 -4.52,1.2 7.72,-2.12 7.17,-6.03 -0.54,-3.92 -30.93,2.39 -30.93,2.39z"/>
   <path class="fil5" d="M976.13 167.4c0.43,0.37 0.91,0.52 1.06,0.34 0.16,-0.18 -0.06,-0.63 -0.49,-1 -0.43,-0.37 -0.91,-0.53 -1.07,-0.34 -0.16,0.18 0.07,0.63 0.5,1z"/>
   <path class="fil5" d="M971.54 172.57c0.42,0.37 0.9,0.53 1.06,0.34 0.16,-0.18 -0.07,-0.63 -0.5,-1 -0.43,-0.37 -0.91,-0.52 -1.06,-0.34 -0.16,0.18 0.06,0.63 0.5,1z"/>
   <polygon class="fil5" points="968.12,147.03 963.6,150.46 962.15,149.87 967.13,145.52 "/>
   <path class="fil25" d="M987.23 162.98c-0.09,0 -0.18,-0.06 -0.2,-0.15 -0.28,-0.88 -0.23,-1.65 0.14,-2.31 0.67,-1.18 2.12,-1.54 2.18,-1.55 0.01,-0.01 0.03,-0.01 0.05,-0.01 0.1,0 0.18,0.07 0.21,0.17 0.02,0.11 -0.04,0.22 -0.16,0.25 -0.01,0 -1.34,0.33 -1.91,1.35 -0.31,0.55 -0.35,1.21 -0.11,1.97 0.04,0.11 -0.03,0.23 -0.14,0.27l-0.06 0.01z"/>
   <polygon class="fil10" points="115.89,415.64 133.08,416.05 134.09,399.87 115.48,399.87 "/>
   <path class="fil0" d="M90.33 433.14l43.55 -1.43 0.4 -20.98c0,0 -16.79,-1.46 -17.02,-0.58 -4.2,16.75 -25.73,12.02 -26.93,22.99z"/>
   <path class="fil4" d="M222.98 253.13c0,0 2.4,14.58 2.31,35.53 -0.08,20.95 -3.97,44.14 -2.64,48.28 1.32,4.14 25.23,30.55 24.37,32.11 -3.3,5.98 -19.48,28.36 -19.48,28.36 -15.44,-14.48 -35.49,-33.61 -39.46,-47.4 -3.97,-13.8 1.84,-51.15 1.84,-51.15 0,0 -42.22,22.1 -44.53,27.28 -2.32,5.17 0.78,73.08 0.34,74.23 -0.44,1.14 -40.37,-0.93 -40.37,-0.93 0,0 6.72,-77.35 11.35,-91.83 4.64,-14.49 54.99,-37.23 54.99,-37.23l5.29 -16.56 45.99 -0.69z"/>
   <polygon class="fil5" points="112.82,211.63 111.3,210.11 169.99,151.42 171.51,152.94 "/>
   <polygon class="fil5" points="177.81,297.97 178.44,295.91 257.79,320.24 257.16,322.29 "/>
   <path class="fil26" d="M189.79 161.03c0,0 -2.34,-10.49 6.65,-14.06 8.98,-3.57 22.44,-1.61 23.51,14.53 0.48,7.23 -1.33,11.71 -3.57,14.47 -3.05,3.75 -6.9,4.33 -6.9,4.33l-19.69 -19.27z"/>
   <polygon class="fil1" points="192.36,192.06 216,191.42 217.03,253.36 186.51,254.13 "/>
   <path class="fil0" d="M195.53 191.42c0,0 -4.95,52.56 -9.02,61.71 -4.07,9.16 -14.25,20.33 -14.25,20.33l-12.97 -3.81c0,0 10.68,-7.64 12.21,-11.71 1.52,-4.07 -12.89,12.57 -25.23,2.81 -10.94,-8.65 -23.36,-48.6 -23.36,-48.6l15.01 -7.63 15.01 26.2c0,0 9.2,-20.14 15.81,-29.04 6.62,-8.91 26.79,-10.26 26.79,-10.26z"/>
   <path class="fil0" d="M213.63 190.95c0,0 -0.29,61.36 0.47,65.94 0.77,4.58 0.5,19.09 0.5,19.09l17.55 -2.39c0,0 -6.77,-21.9 -6.54,-25.85 0.47,-8.45 3.92,-15.99 3.92,-15.99 0,0 13.65,20.4 14.74,24.39 0.98,3.6 -4.61,23.71 -7.21,46.67 0.06,0.35 16.8,2.4 17.36,1.8 7.86,-8.52 14.99,-41.97 13.91,-50.76 -1.73,-14.2 -17.18,-43.92 -29.93,-55.01 -7.85,-6.84 -16.4,-8.04 -24.77,-7.89z"/>
   <path class="fil10" d="M209.91 192.11l-0.33 -16.23c0,0 7.14,-2.33 3.99,-9.49 -0.92,-2.08 -2.35,-1.32 -3.69,-0.56 -2.02,1.14 -3.85,2.28 -3.51,-6.13 0.15,-3.61 -1.24,-3.06 -3.81,-2.51 -1.84,0.39 -4.29,0.78 -7.21,-0.35 -7.02,-2.72 -6.45,9.87 -6.73,17.46 -0.29,7.59 6.73,8.59 6.73,8.59l0.18 8.53 14.38 0.69z"/>
   <path class="fil5" d="M172.06 257.03l-0.32 -0.28c6.87,-7.95 7.39,-28.99 7.39,-29.2l0.42 0.01c0,0.21 -0.52,21.41 -7.49,29.47z"/>
   <path class="fil10" d="M237.3 302.54c0,0 -8.24,9.87 -7.13,13.8 1.18,4.23 4.88,-0.94 4.88,-0.94 0,0 -1.73,8.65 6.2,9.28 7.94,0.62 8.77,-3.37 11,-7.7 2.23,-4.33 2.16,-12.18 2.16,-12.18l-17.11 -2.26z"/>
   <path class="fil10" d="M136.71 205.21c0,0 -0.36,-20.76 -3.15,-20.42 -2.79,0.34 -2.25,6.29 -2.44,9.15 -0.2,2.86 -2.95,-7.54 -10.04,-3.89 -7.1,3.65 -2.46,14.17 3.27,21.37l12.36 -6.21z"/>
   <path class="fil12" d="M197.2 187.01c-1.57,0 -1.67,-0.4 -1.67,-0.4l-0.18 -3.72c0,0 1.33,0.55 3.37,0.55 1.33,0 2.96,-0.23 4.72,-1.01 3.26,-0.98 4.54,-2.3 4.54,-2.3 0,0 -2.9,5.79 -7.57,6.55 -1.47,0.24 -2.49,0.33 -3.21,0.33z"/>
   <path class="fil13" d="M196.17 177.65c-0.31,0 -0.62,-0.03 -0.91,-0.11 -1.45,-0.36 -2.13,-1.5 -2.16,-1.55 -0.06,-0.1 -0.02,-0.23 0.08,-0.29 0.03,-0.02 0.07,-0.03 0.11,-0.03 0.07,0 0.14,0.04 0.18,0.11 0,0.01 0.63,1.04 1.9,1.35 0.26,0.07 0.52,0.1 0.79,0.1 0.83,0 1.74,-0.3 2.7,-0.88 0.04,-0.02 0.08,-0.03 0.11,-0.03 0.07,0 0.15,0.03 0.18,0.1 0.06,0.1 0.03,0.23 -0.07,0.29 -1.03,0.63 -2.01,0.94 -2.91,0.94z"/>
   <path class="fil4" d="M202.46 190.44c0,0 8.45,-4.1 9.03,-1.92 0.58,2.18 0.54,7.71 -1.14,7.99 -1.68,0.28 -7.81,-3.71 -7.81,-3.71 0,0 -5.91,3.45 -8.11,3.08 -2.19,-0.36 -1.58,-5.7 -0.26,-8.02 1.32,-2.32 8.29,2.58 8.29,2.58z"/>
   <path class="fil12" d="M197.38 172.94l-4.05 -0.58c0,0 0.34,-1 1.36,-1 0.62,0 1.49,0.37 2.69,1.58z"/>
   <path class="fil5" d="M191.9 166.35c0.05,-0.63 0.37,-1.11 0.72,-1.08 0.35,0.03 0.6,0.55 0.55,1.17 -0.05,0.63 -0.37,1.11 -0.72,1.08 -0.35,-0.02 -0.6,-0.55 -0.55,-1.17z"/>
   <path class="fil5" d="M200.07 166.92c0.04,-0.62 0.37,-1.11 0.72,-1.08 0.35,0.03 0.59,0.55 0.55,1.17 -0.05,0.63 -0.37,1.11 -0.72,1.08 -0.36,-0.02 -0.6,-0.55 -0.55,-1.17z"/>
   <path class="fil26" d="M193.82 163.21c-1.32,-1.71 -3.29,-0.68 -3.38,-0.64l-0.19 -0.37c0.02,-0.01 2.36,-1.24 3.9,0.75l-0.33 0.26z"/>
   <path class="fil26" d="M202.35 163.74c-1.32,-1.71 -3.28,-0.68 -3.37,-0.64l-0.2 -0.37c0.03,-0.01 2.37,-1.24 3.91,0.75l-0.34 0.26z"/>
   <path class="fil5" d="M229.35 231.86c-6.84,-10.52 -2.83,-22.28 -2.79,-22.39l0.4 0.14c-0.04,0.11 -3.98,11.68 2.75,22.02l-0.36 0.23z"/>
   <polygon class="fil10" points="259.49,405.43 265.15,389.05 245.33,373.28 232.19,391.07 "/>
   <path class="fil0" d="M269.16 429.84l7.48 -34.22 -17.51 -11.54c0,0 -8.62,16.65 -7.89,17.13 16.16,10.39 7.58,25.69 17.92,28.63z"/>
   <path class="fil0" d="M187.47 172.94c0,0 13.97,0.03 16.48,1.34 2.51,1.32 -16.6,2.21 -16.48,-1.34z"/>
   <path class="fil13" d="M212.67 169.36c-0.07,0 -0.14,-0.04 -0.18,-0.1 -0.4,-0.61 -0.8,-0.92 -1.19,-0.92 -0.01,0 -0.02,0 -0.03,0 -0.55,0.02 -1.03,0.66 -1.16,0.91 -0.04,0.07 -0.11,0.11 -0.19,0.11l-0.1 -0.03c-0.1,-0.05 -0.14,-0.18 -0.08,-0.29 0.02,-0.04 0.61,-1.09 1.51,-1.12 0.02,0 0.03,0 0.04,0 0.55,0 1.07,0.37 1.56,1.11 0.06,0.1 0.03,0.23 -0.07,0.29 -0.03,0.03 -0.07,0.04 -0.11,0.04z"/>
   <path class="fil0" d="M0 215.35l107.62 40.46c0,0 -26.71,-1.63 -56.35,-12.16 -36.17,-12.86 -51.27,-28.3 -51.27,-28.3z"/>
   <path class="fil0" d="M0.58 210.58l107.91 39.7c0,0 -21.13,-16.16 -50.44,-27.56 -35.77,-13.9 -57.47,-12.14 -57.47,-12.14z"/>
   <path class="fil27" d="M49.34 432.23l-0.01 0c-0.25,0 -0.46,-0.21 -0.45,-0.47l3.38 -227.4c0,-0.25 0.21,-0.45 0.46,-0.45l0.01 0c0.25,0 0.46,0.21 0.45,0.46l-3.38 227.41c-0.01,0.25 -0.21,0.45 -0.46,0.45z"/>
   <polygon class="fil5" points="69.72,431.77 72.47,431.75 71.99,377.75 69.24,377.78 "/>
   <polygon class="fil5" points="57.28,432 60.33,432.26 71.7,415.89 69.49,414.35 "/>
   <polygon class="fil5" points="80.88,431.97 84.83,431.77 72.26,413.8 70.01,415.26 "/>
   <path class="fil5" d="M74.29 309c-22.56,0 -40.84,2.62 -40.84,5.86l0 64.07c0,3.24 18.28,5.86 40.84,5.86 22.56,0 40.85,-2.62 40.85,-5.86l0 -64.07c0,-3.24 -18.29,-5.86 -40.85,-5.86z"/>
   <path class="fil8" d="M115.14 317.97c0,3.23 -18.29,5.85 -40.85,5.85 -22.56,0 -40.84,-2.62 -40.84,-5.85 0,-3.23 18.28,-5.86 40.84,-5.86 22.56,0 40.85,2.63 40.85,5.86z"/>
   <polygon class="fil1" points="72.09,389.62 76.5,389.62 76.5,317.97 72.09,317.97 "/>
   <polygon class="fil1" points="94.96,389.62 99.37,389.62 99.37,317.97 94.96,317.97 "/>
   <polygon class="fil1" points="112.93,382.72 116.22,382.72 116.22,311.07 112.93,311.07 "/>
   <polygon class="fil1" points="46.54,389.62 50.94,389.62 50.94,317.97 46.54,317.97 "/>
   <polygon class="fil1" points="31.24,382.72 34.06,382.72 34.06,311.07 31.24,311.07 "/>
   <path class="fil5" d="M222.85 379.68c0,29.04 -22.92,52.58 -51.19,52.58 -28.28,0 -51.2,-23.54 -51.2,-52.58 0,-29.03 22.92,-52.57 51.2,-52.57 28.27,0 51.19,23.54 51.19,52.57z"/>
   <path class="fil2" d="M212.9 379.68c0,23.4 -18.47,42.36 -41.24,42.36 -22.78,0 -41.24,-18.96 -41.24,-42.36 0,-23.39 18.46,-42.35 41.24,-42.35 22.77,0 41.24,18.96 41.24,42.35z"/>
   <polygon class="fil5" points="290.65,433.14 293.88,433.14 293.88,342.82 290.65,342.82 "/>
   <polygon class="fil5" points="278.49,432 281.55,432.26 292.91,415.89 290.7,414.35 "/>
   <polygon class="fil5" points="302.1,431.97 306.04,431.77 293.47,413.8 291.22,415.26 "/>
   <path class="fil5" d="M280.66 273.68c-22.31,3.28 -40.03,8.52 -39.56,11.72l9.31 63.4c0.47,3.2 18.94,3.14 41.26,-0.14 22.32,-3.27 40.03,-8.52 39.56,-11.72l-9.3 -63.4c-0.47,-3.2 -18.95,-3.14 -41.27,0.14z"/>
   <path class="fil9" d="M322.38 276.62c0.47,3.2 -17.25,8.44 -39.56,11.72 -22.32,3.28 -40.8,3.34 -41.26,0.14 -0.47,-3.2 17.24,-8.45 39.56,-11.72 22.31,-3.28 40.79,-3.34 41.26,-0.14z"/>
   <polygon class="fil1" points="294.55,353.12 290.19,353.76 279.79,282.87 284.15,282.23 "/>
   <polygon class="fil1" points="317.19,349.8 312.83,350.44 302.42,279.55 306.78,278.91 "/>
   <polygon class="fil1" points="332.86,340.53 329.6,341.01 319.2,270.11 322.45,269.63 "/>
   <polygon class="fil1" points="269.27,356.83 264.91,357.48 254.51,286.58 258.87,285.94 "/>
   <polygon class="fil1" points="251.56,352.46 248.78,352.87 238.37,281.97 241.16,281.57 "/>
   <path class="fil22" d="M41.87 508.59l0 0c-0.18,0 -0.33,-0.13 -0.36,-0.3l-0.01 -0.04 0.74 0c0,0.17 -0.14,0.32 -0.32,0.34l-0.05 0zm-21.47 -0.34l0 0 0.36 0 -0.36 0z"/>
   <polygon class="fil0" points="493.84,33.17 490.12,31.79 489.15,27.95 486.69,31.05 482.73,30.79 484.93,34.09 483.45,37.77 487.27,36.7 490.32,39.24 490.48,35.28 "/>
   <polygon class="fil0" points="1157.91,43.21 1154.19,41.83 1153.22,37.98 1150.75,41.09 1146.79,40.82 1148.99,44.13 1147.52,47.81 1151.34,46.74 1154.37,49.28 1154.54,45.32 "/>
   <path class="fil28" d="M899.99 412.48l-16.08 0c0,0 -1.57,16.41 0,19.26l44.18 0.38c0,0 6.3,-8.44 -6.84,-10.45 -13.15,-2.02 -21.26,-9.19 -21.26,-9.19z"/>
   <path class="fil9" d="M922.12 421.82l-2.92 6.99 -35.94 -1.19 -0.04 4.58 45.68 -0.08c0,0 1.93,-3.66 -0.14,-7 -2.08,-3.34 -6.64,-3.3 -6.64,-3.3z"/>
   <polygon class="fil5" points="883.89,412.48 899.99,412.48 899.99,408.65 883.89,408.65 "/>
   <polygon class="fil5" points="802.58,412.48 819.36,412.48 819.36,408.65 802.58,408.65 "/>
   <path class="fil28" d="M819.36 412.48l-16.78 0c0,0 -3.83,10.5 -4.1,13.42 -0.27,2.92 0,6.22 0,6.22l24.95 -0.38c0,0 1.07,-1.33 0,-6.9 -1.06,-5.58 -4.07,-12.36 -4.07,-12.36z"/>
   <path class="fil9" d="M823.9 426.97c0,0 0.06,-6.11 -8.43,-7.44 -8.5,-1.33 -14.53,-0.79 -16.42,3.72 -1.9,4.51 -0.57,8.87 -0.57,8.87l25.42 0.09 0 -5.24z"/>
   <path class="fil2" d="M866.8 224.84l-40.61 -9.57c0,0 -8.21,8.16 -11.76,30.16 -3.55,22 2.45,50.49 3.02,57.49 0.97,11.95 -2.84,32.3 -10.19,47.63 -12.68,26.41 -12.52,58.53 -12.52,58.53l33.8 0c0,0 6.04,-50.82 20.91,-96.89 3.84,-11.92 1.95,-37.46 1.95,-37.46 0,0 23.95,29.33 24.34,36.51 0.39,7.18 5.62,21.34 -1.18,52.45 -2.69,11.96 -3.6,40.48 -0.9,45.39l33.02 0c0,0 1.37,-74.06 1.31,-106.88 1.05,-7.83 -33.92,-53.85 -40.41,-62.74 -5.18,-7.09 -0.78,-14.62 -0.78,-14.62z"/>
   <path class="fil9" d="M866.37 225.72c2.45,-0.22 -42.83,-9.12 -42.83,-9.12 0,0 21.69,-57.36 40.57,-65.13 3.78,-1.56 23.57,15.93 23.57,15.93 0,0 -23.76,58.54 -21.31,58.32z"/>
   <path class="fil4" d="M885.94 165.35c0,0 -2.57,2.68 -7.44,14.74 -2.23,6.64 -5.55,13.18 -5.55,13.18l-4.64 -4.32 -14.17 10.3 11.8 16.02c0,0 -0.88,16.29 4.85,24.02 6.24,10.47 13.07,14.89 13.07,14.89l10.55 -5.04c0,0 -7.8,-3.79 -13.15,-8.69 -5.35,-4.91 -5.79,-12.26 -5.79,-12.26 0,0 16.55,23.69 30.3,15.38 10.7,-6.46 2.23,-32.09 -1.56,-47.02 -4.06,-20.44 -18.27,-31.2 -18.27,-31.2z"/>
   <path class="fil20" d="M897.31 219.49c-0.06,0 -0.12,-0.03 -0.16,-0.07l-22.51 -24.07c-0.08,-0.08 -0.07,-0.22 0.01,-0.3 0.04,-0.03 0.1,-0.05 0.15,-0.05 0.06,0 0.11,0.02 0.15,0.06l22.51 24.07c0.08,0.09 0.07,0.22 -0.01,0.3 -0.04,0.04 -0.09,0.06 -0.14,0.06z"/>
   <path class="fil4" d="M867.47 151.94c0,0 -12.85,-8.59 -22.41,-8.46 -14.73,0 -38.57,24.65 -45.39,27.71 -4.73,-3.06 -33.18,-17.88 -33.18,-17.88l-10.25 13.37c0,0 23.92,21.65 37.06,28.56 13.15,6.91 26.9,-7.16 26.9,-7.16 0,0 -4.02,13.81 -8.03,25.4 -4,11.59 -14.75,29.99 -14.75,29.99l20.28 6.64c0,0 12.87,-36.83 18.1,-52 11.78,-34.2 31.67,-46.17 31.67,-46.17z"/>
   <path class="fil29" d="M887.32 154.29c0,0 8.4,3.81 16.98,-7.1 5.7,-7.25 3.16,-19.09 0.01,-22.97 -10.79,-13.59 -29.63,-4.89 -28.3,7.52 -0.96,8.04 11.31,22.55 11.31,22.55z"/>
   <path class="fil3" d="M888.31 152.6l-5.94 10.17c0,0 -9.66,-0.59 -12.01,-5.52 -1.38,-3.68 1.06,-5.15 1.06,-5.15 0,0 -2.12,-2.55 -0.71,-8.36 1.04,-4.33 5.2,-12.08 7.25,-15.73 0.38,-0.69 1.38,-0.62 1.67,0.11 0.58,1.47 1.81,3.37 4.36,4.52 3.18,1.61 6.34,1.65 8.17,1.48 0.7,-0.06 1.25,0.62 1.01,1.29 -0.95,2.75 -3.71,10.5 -0.49,9.74 3.02,0.13 6.07,2.03 2.62,5.68 -2.46,2.68 -6.99,1.77 -6.99,1.77z"/>
   <path class="fil3" d="M764.44 156c0,0 -6.44,-10.66 -13.46,-10.48 -4.83,0.66 -5.01,6.44 -2.55,11.87 2.45,5.44 8.83,10.01 8.83,10.01l7.18 -11.4z"/>
   <path class="fil30" d="M863.16 289.94c0,0 -5.53,-7.33 -7.55,-9.92 2.13,2.71 4.83,6.21 7.55,9.92l0 0zm-8.03 -10.53c-1.26,-1.6 -3.73,-4.68 -3.73,-4.68l0 0c0,0 1.49,1.83 3.73,4.68z"/>
   <path class="fil31" d="M863.16 289.94c-2.72,-3.71 -5.42,-7.21 -7.55,-9.92 -0.03,-0.04 -0.06,-0.08 -0.09,-0.12 -0.11,-0.14 -0.24,-0.31 -0.39,-0.49 -2.24,-2.85 -3.73,-4.68 -3.73,-4.68l0 0 -4.34 -21.73 16.1 36.94z"/>
   <path class="fil23" d="M875.48 228.4c-0.01,-0.14 -0.01,-0.21 -0.01,-0.21 0,0 0.04,0.06 0.12,0.17 -0.03,0.03 -0.07,0.04 -0.11,0.04z"/>
   <path class="fil1" d="M865.93 215.6l-11.97 -16.23c-0.06,-0.09 -0.04,-0.23 0.05,-0.3 0.04,-0.02 0.08,-0.04 0.13,-0.04 0.06,0 0.12,0.03 0.17,0.09l0 0 -0.17 0.13 11.8 16.02c0,0 -0.01,0.11 -0.01,0.33z"/>
   <path class="fil20" d="M875.47 228.4c-0.07,0 -0.13,-0.03 -0.18,-0.08l-9.36 -12.72c0,-0.22 0.01,-0.33 0.01,-0.33l-11.8 -16.02 0.17 -0.13 21.33 28.95c0.07,0.09 0.04,0.22 -0.05,0.29 0,0 0,0 0,0 -0.08,-0.11 -0.12,-0.17 -0.12,-0.17 0,0 0,0.07 0.01,0.21 0,0 -0.01,0 -0.01,0z"/>
   <path class="fil32" d="M869.96 154.68c-0.09,-0.08 -0.13,-0.13 -0.13,-0.13l0.21 -0.33c-0.03,0.15 -0.06,0.3 -0.08,0.46z"/>
   <path class="fil7" d="M876.91 158.1c-3.29,0 -6.28,-2.76 -6.95,-3.42 0.02,-0.16 0.05,-0.31 0.08,-0.46l1.38 -2.12c2.02,2.82 4.72,3.53 6.92,3.53 2.19,0 3.87,-0.7 3.87,-0.7 -1.65,2.37 -3.51,3.17 -5.3,3.17z"/>
   <path class="fil7" d="M876.88 144.93c-1.26,0 -1.51,-1.73 -1.51,-1.73l2.52 1.44c-0.4,0.21 -0.73,0.29 -1.01,0.29z"/>
   <path class="fil29" d="M879.37 155.58l-5.76 0.4 -4.28 -2.88 0.96 -6.92c0,0 4.57,2.13 6.35,4.07 1.77,1.94 3.77,4.7 2.73,5.33z"/>
   <path class="fil9" d="M877.19 147.7c0,0 -3.69,1.69 -3.31,-2.32l3.31 2.32z"/>
   <path class="fil29" d="M884.82 140.47l0.05 -0.01c0.11,-0.03 0.18,-0.14 0.15,-0.26 -0.01,-0.05 -0.36,-1.45 -1.51,-2.14 -0.65,-0.4 -1.43,-0.49 -2.3,-0.27 -0.11,0.03 -0.18,0.14 -0.15,0.25 0.03,0.12 0.14,0.19 0.25,0.16 0.76,-0.19 1.43,-0.12 1.98,0.22 1,0.6 1.32,1.87 1.32,1.88 0.02,0.1 0.11,0.17 0.21,0.17z"/>
   <path class="fil29" d="M879.16 137.31l0.05 0c0.11,-0.03 0.18,-0.14 0.15,-0.26 -0.01,-0.05 -0.36,-1.45 -1.51,-2.14 -0.65,-0.4 -1.42,-0.49 -2.3,-0.27 -0.11,0.03 -0.18,0.14 -0.15,0.25 0.03,0.12 0.14,0.19 0.25,0.16 0.77,-0.19 1.43,-0.12 1.98,0.22 1,0.6 1.32,1.87 1.32,1.88 0.02,0.1 0.11,0.16 0.21,0.16z"/>
   <path class="fil5" d="M881.82 140.92c-0.27,0.5 -0.31,1 -0.1,1.11 0.21,0.11 0.6,-0.2 0.87,-0.7 0.26,-0.51 0.3,-1 0.09,-1.12 -0.21,-0.11 -0.6,0.21 -0.86,0.71z"/>
   <path class="fil5" d="M875.76 137.59c-0.27,0.5 -0.32,1 -0.11,1.11 0.22,0.11 0.6,-0.2 0.87,-0.71 0.27,-0.5 0.31,-1 0.1,-1.11 -0.21,-0.11 -0.6,0.2 -0.86,0.71z"/>
   <path class="fil5" d="M891.94 408.86c0.11,0 0.2,-0.08 0.21,-0.19 0.02,-0.33 2.37,-32.78 4.89,-68.91 2.49,-35.64 -3.56,-45.29 -21.53,-73.93l-1.48 -2.37c-18.74,-29.92 -22.42,-40.82 -22.45,-40.93 -0.04,-0.11 -0.16,-0.17 -0.27,-0.14 -0.11,0.04 -0.17,0.16 -0.13,0.27 0.03,0.11 3.71,11.05 22.49,41.03l1.48 2.36c17.91,28.56 23.94,38.17 21.47,73.68 -2.52,36.13 -4.87,68.58 -4.89,68.9 -0.01,0.12 0.08,0.22 0.2,0.23l0.01 0z"/>
   <path class="fil5" d="M810.97 410.78c0.09,0 0.18,-0.06 0.2,-0.16 0.23,-0.8 23.15,-80.59 25.1,-118.15 1.96,-37.56 0.02,-73.06 0,-73.41 0,-0.12 -0.1,-0.22 -0.22,-0.2 -0.12,0 -0.21,0.1 -0.2,0.22 0.02,0.36 1.95,35.83 0,73.36 -1.95,37.52 -24.85,117.27 -25.08,118.07 -0.03,0.11 0.03,0.23 0.14,0.26l0.06 0.01z"/>
   <path class="fil21" d="M755.16 322.79c3.53,0.71 6.79,-6.8 6.79,-6.8 18.27,4.53 17,-11.13 12,-22.15 -4.77,-10.51 -15.73,-15.91 -25.03,-12.62l-7.81 -19.22c-8.87,-22.55 5.76,-52.9 24.99,-59.38 1.7,-0.57 5.29,1.57 7.07,1.17 2.37,-0.55 4.76,-0.89 7.14,-1.06 25.49,-1.77 46.88,17.6 47.22,42.23l1.25 19.76c-7.76,2.45 -13.7,10.42 -14.2,20.15 -0.61,12.09 7.39,22.32 17.87,22.86 4.84,0.24 9.37,-1.63 12.9,-4.9 9.05,6.19 15.85,16.38 19.63,34.2 6.56,30.87 -13.96,58.46 -45.92,65.79 -32.01,7.33 -63.01,-8.81 -70.06,-39.58 -3.41,-14.91 -1.02,-28.89 6.16,-40.45z"/>
   <path class="fil0" d="M761.95 315.99c3.53,0.71 7.17,0.39 10.54,-1.14 9.56,-4.34 13.25,-16.79 8.25,-27.81 -4.78,-10.51 -15.73,-15.91 -25.03,-12.62l-7.82 -19.22c-8.87,-22.55 3.14,-48.3 26.87,-56.7 1.68,-0.6 3.42,-1.11 5.19,-1.51 2.37,-0.55 4.76,-0.89 7.14,-1.06 25.49,-1.76 46.89,17.61 47.22,42.23l1.26 19.76c-7.77,2.46 -13.7,10.42 -14.2,20.15 -0.62,12.09 7.38,22.32 17.86,22.86 4.85,0.25 9.38,-1.63 12.91,-4.9 9.04,6.19 15.84,16.38 19.63,34.2 6.55,30.86 -13.97,58.46 -45.93,65.78 -32.01,7.33 -63.01,-8.8 -70.06,-39.57 -3.41,-14.91 -1.02,-28.89 6.17,-40.45z"/>
   <polygon class="fil1" points="793.6,277.53 804.8,274.35 757.98,118.26 750.98,120.24 "/>
   <path class="fil5" d="M786.82 109.51c9.25,6.53 51.27,37.46 77.12,78.53l-77.12 -78.53zm79.47 81.53l-0.98 -1.6c-28.93,-47.05 -79.58,-81.21 -80.09,-81.55l-1.71 -1.14 82.78 84.29z"/>
   <path class="fil3" d="M866.64 190.17c0,0 -4.91,-12.35 -7.47,-14.03 -13.38,-8.74 -0.79,5.7 -2.17,4.45 -3.39,-3.05 -9.13,-9.86 -11.85,-8.69 -5.9,2.55 9.96,26.64 9.96,26.64l11.53 -8.37z"/>
   <path class="fil5" d="M811.85 339.24l0.06 -0.01c0.11,-0.03 0.18,-0.15 0.15,-0.26l-60.87 -218.78c-0.03,-0.12 -0.15,-0.18 -0.26,-0.15 -0.12,0.03 -0.18,0.15 -0.15,0.26l60.87 218.78c0.03,0.1 0.11,0.16 0.2,0.16z"/>
   <path class="fil5" d="M814.94 337.58l-62.01 -217.89c-0.04,-0.11 -0.16,-0.17 -0.27,-0.14 -0.11,0.03 -0.17,0.15 -0.14,0.26l62.04 217.98c0.03,0.1 0.42,-0.09 0.38,-0.21z"/>
   <path class="fil5" d="M817.04 338.92l0 0c0.12,-0.03 0.24,-0.02 0.21,-0.14l-62.1 -219.72c-0.03,-0.11 -0.15,-0.17 -0.26,-0.14 -0.11,0.03 -0.18,0.15 -0.15,0.26l62.1 219.72c0.03,0.09 0.11,0.02 0.2,0.02z"/>
   <path class="fil5" d="M819.3 337.79l0.06 0c0.12,-0.04 0.18,-0.15 0.15,-0.26l-62.48 -219c-0.04,-0.11 -0.15,-0.18 -0.26,-0.14 -0.12,0.03 -0.18,0.14 -0.15,0.26l62.48 218.99c0.03,0.09 0.11,0.15 0.2,0.15z"/>
   <path class="fil5" d="M822.17 336.03l0.06 -0.01c0.12,-0.03 0.18,-0.15 0.15,-0.26l-64.2 -217.56c-0.03,-0.11 -0.15,-0.17 -0.26,-0.14 -0.12,0.03 -0.18,0.15 -0.15,0.26l64.2 217.56c0.03,0.09 0.11,0.15 0.2,0.15z"/>
   <path class="fil5" d="M879.49 159.69l6.29 -1.3c0.96,-0.2 1.85,0.52 1.62,1.3l-1.68 5.91c-0.28,1 -1.81,1.31 -2.69,0.55l-4.04 -3.44 -5.07 1.94c-0.98,0.37 -2.12,-0.28 -2.05,-1.18l0.54 -6.17c0.09,-1.15 1.77,-1.66 2.82,-0.86l4.26 3.25z"/>
   <polygon class="fil5" points="802.02,342.83 832.72,334.84 832.07,332.34 801.36,340.33 "/>
   <polygon class="fil1" points="823.54,375.89 843.4,432.68 829.05,374.63 "/>
   <path class="fil5" d="M764.44 106.93c0,1.49 1.21,2.7 2.7,2.7 1.49,0 2.7,-1.21 2.7,-2.7 0,-1.48 -1.21,-2.69 -2.7,-2.69 -1.49,0 -2.7,1.21 -2.7,2.69z"/>
   <path class="fil5" d="M734.59 113.72c0,1.49 1.21,2.7 2.69,2.7 1.49,0 2.7,-1.21 2.7,-2.7 0,-1.49 -1.21,-2.7 -2.7,-2.7 -1.48,0 -2.69,1.21 -2.69,2.7z"/>
   <path class="fil5" d="M737.71 128.8c0,1.49 1.2,2.7 2.69,2.7 1.49,0 2.7,-1.21 2.7,-2.7 0,-1.49 -1.21,-2.7 -2.7,-2.7 -1.49,0 -2.69,1.21 -2.69,2.7z"/>
   <path class="fil5" d="M768.57 121.28c0,1.49 1.21,2.7 2.7,2.7 1.49,0 2.69,-1.21 2.69,-2.7 0,-1.48 -1.2,-2.69 -2.69,-2.69 -1.49,0 -2.7,1.21 -2.7,2.69z"/>
   <path class="fil5" d="M737.28 113.93l0.05 0 29.86 -6.79c0.11,-0.03 0.18,-0.14 0.15,-0.25 -0.02,-0.12 -0.13,-0.19 -0.25,-0.16l-29.85 6.78c-0.12,0.03 -0.19,0.14 -0.16,0.26 0.02,0.1 0.11,0.16 0.2,0.16z"/>
   <path class="fil5" d="M740.43 128.44l0.05 -0.01 29.85 -6.78c0.12,-0.03 0.19,-0.14 0.17,-0.25 -0.03,-0.12 -0.14,-0.19 -0.26,-0.16l-29.86 6.78c-0.11,0.03 -0.18,0.14 -0.15,0.26 0.02,0.09 0.11,0.16 0.2,0.16z"/>
   <path class="fil4" d="M758.42 132.58l0 0c4.98,-1.28 7.97,-6.35 6.69,-11.33l-3.69 -14.31c-1.28,-4.98 -6.35,-7.97 -11.33,-6.69 -4.97,1.28 -7.97,6.36 -6.69,11.33l3.69 14.31c1.28,4.98 6.36,7.98 11.33,6.69z"/>
   <path class="fil3" d="M748.7 158.1c2.28,4.67 8.38,2.07 11.74,0.15 0.66,-0.38 -0.94,-6.78 -0.94,-6.78 1.95,-1.57 4.76,-2.11 6.38,-3.02 4.3,-2.4 0.16,-2.85 -4.9,-1.07 0,0 8.56,-3.82 7.52,-5.09 -0.95,-1.15 -4.31,0.06 -8.09,1.38 -0.27,0.09 -0.46,-0.36 -0.18,-0.42 4.07,-0.88 7.55,-2.65 6.28,-4.26 -0.57,-0.73 -3.53,0.38 -6.96,1.74 -0.48,0.2 -0.85,-0.51 -0.39,-0.75 2.22,-1.18 4.82,-2.28 4.61,-3.81 -0.33,-2.45 -9.6,2.49 -12.23,4.4 -3.95,2.87 -9.02,4.91 -2.84,17.53z"/>
   <path class="fil33" d="M376.21 219.97c0,0 9.39,-2.01 19.58,-5.62 10.2,-3.62 22.8,-10.61 22.8,-10.61 0,0 -20.85,-19.02 -26.57,-29.61 -5.71,-10.6 -26.79,-39.42 -26.79,-39.42l-13.48 -1.16 24.46 86.42z"/>
   <polygon class="fil5" points="389.4,336.74 386.34,341.74 402.44,349.73 405.84,344.41 "/>
   <path class="fil2" d="M339.43 217.2c0,0 -4.38,29.47 -5.84,44.11 -1.47,14.63 3.78,42.31 3.32,47.56 -0.55,6.35 -7.44,18.52 -12.14,35.42 -6.39,22.96 -12.22,54.25 -12.22,54.25l24.06 3.55c0,0 13.89,-49.67 18.36,-58.86 4.46,-9.19 10.09,-24.19 13.13,-40.14 2.16,-11.28 5.63,-58.6 5.63,-58.6l37.65 28.62c0,0 -23.86,53.71 -24.63,63.64 -0.1,1.26 21.34,9.57 21.34,9.57 0,0 21.9,-44.95 34.11,-65.91 8.18,-14.04 -8.74,-29.23 -24.49,-46.64 -4.62,-5.12 -19.48,-18.31 -26.28,-25.8 -1.56,-3.51 -4.53,-11.51 -4.53,-11.51l-47.47 20.74z"/>
   <path class="fil0" d="M314.85 404.77l17.71 3.05c0,0 -2.51,5.73 0,8.24 2.51,2.51 16.84,7.17 17.91,10.03 1.08,2.87 3.23,6.59 3.23,6.59l-21.86 0 -21.14 -10.69c0,0 0.41,-3.42 4.15,-17.22z"/>
   <path class="fil0" d="M387.11 340.59l15.44 9.2c0,0 -5.99,7.92 -4.55,11.16 1.44,3.24 8.07,14.5 8.04,17.56 -0.02,3.06 -0.62,5.75 -0.62,5.75l-12.69 -9.34 -17.75 -16.72c0,0 3.69,-6.08 12.13,-17.61z"/>
   <polygon class="fil5" points="316.35,399.1 314.85,404.77 332.56,407.82 334.3,401.75 "/>
   <polygon class="fil3" points="310.7,421.99 309.63,425.02 330.65,432.66 353.7,432.68 352.15,429.79 331.66,430.27 "/>
   <polygon class="fil3" points="376.34,356.66 405.2,383.65 403.02,386.37 374.16,358.86 "/>
   <path class="fil31" d="M411.38 273.11l0 0zm0 0l-37.65 -28.62 0 -7.21 37.65 35.83z"/>
   <path class="fil5" d="M325.22 400.62l-0.07 -0.01c-0.11,-0.04 -0.17,-0.16 -0.13,-0.27 0.21,-0.61 21.71,-60.92 25.33,-84.63 3.63,-23.71 4.09,-83.55 4.09,-84.15 0,-0.12 0.1,-0.21 0.21,-0.21l0 0c0.12,0 0.22,0.1 0.21,0.21 0,0.6 -0.46,60.47 -4.09,84.22 -3.63,23.74 -25.14,84.1 -25.35,84.7 -0.03,0.09 -0.12,0.14 -0.2,0.14z"/>
   <path class="fil5" d="M405.84 344.62l-0.09 -0.02c-0.1,-0.04 -0.15,-0.17 -0.1,-0.27 0.29,-0.66 29.19,-65.62 30.4,-71.27 1.09,-5.04 -30.55,-37.05 -40.94,-47.57 -1.19,-1.2 -2.11,-2.14 -2.71,-2.75 -5.88,-6.03 -14.06,-22 -14.15,-22.16 -0.05,-0.11 -0.01,-0.23 0.1,-0.29 0.1,-0.05 0.23,-0.01 0.28,0.1 0.08,0.16 8.24,16.07 14.08,22.06 0.59,0.61 1.52,1.54 2.7,2.74 18.11,18.33 42.07,43.24 41.05,47.96 -1.22,5.69 -29.23,68.67 -30.43,71.35 -0.03,0.08 -0.11,0.12 -0.19,0.12z"/>
   <path class="fil9" d="M328.49 129.83c0,0 22.07,-6.35 27.89,-3.75 5,2.23 21.1,34.88 24.82,42.77 3.72,7.89 5.13,27.56 5.13,27.56l-19.92 9.73c0,0 -24.79,-71.88 -37.92,-76.31z"/>
   <path class="fil4" d="M354.13 125.45c0,0 30.65,42.45 34.76,54.11 4.12,11.66 23.16,30.39 23.16,30.39l7.25 -5.82c0,0 -18,-17.22 -21.56,-23.83 -3.55,-6.62 -3.17,-8.04 -3.17,-8.04 0,0 20.11,5.74 30.31,0.11 10.21,-5.64 -9.74,-49.79 -9.74,-49.79l-14.41 6.38 5.56 24.12c-3.35,-0.61 -28.88,-22.23 -33.64,-24.15 -10.22,-4.13 -18.52,-3.48 -18.52,-3.48z"/>
   <path class="fil5" d="M330.72 120.45c0,0 -15.75,0.36 -20.02,-11.17 -2.86,-15.08 1.61,-23.76 12.52,-24.2 9.49,-0.39 14.54,-11.86 17.18,-6.64 2.64,5.23 4.9,20.67 4.9,20.67l-14.58 21.34z"/>
   <path class="fil0" d="M353.73 111.02c0,0 2.42,-3.95 11.34,-7.81 4.78,-1.55 10.53,-2.66 15.12,-1.03 7.37,2.65 14.52,7.51 18.19,33.29 3.67,25.78 2.75,35.56 5.32,40.35 2.56,4.79 6.28,-13.72 4.94,-21.19 -0.09,-0.52 22.25,2.11 22.25,2.11 0,0 -0.16,45.64 -27.03,46.35 -28.16,-0.97 -20.87,-48.85 -22.14,-72.02 -0.89,-16.18 -2.7,-33.84 -27.99,-20.05z"/>
   <path class="fil3" d="M330.27 118.52l2.22 9.5c0,0 7.22,3.51 11.31,0.73 4.09,-2.78 3.67,-3.24 3.67,-3.24l-0.79 -5.05c0,0 5.41,-0.58 6.85,-4.1 1.45,-3.51 -1.14,-9.14 -1.14,-9.14 0,0 1.83,0.04 2.24,-2.31 0.4,-2.34 -4.14,-1.03 -4.84,-5.93 -0.7,-4.9 -5.75,-8.36 -7.9,-9.75 -1.38,-0.89 0.74,5.51 -0.88,10.49 -0.88,2.73 -0.07,6.43 -4.2,3.12 -3.34,-2.5 -7.14,0.49 -5.32,6.2 1.82,5.71 -1.22,9.48 -1.22,9.48z"/>
   <path class="fil4" d="M327.26 129.63c0,0 11.78,6.89 16.05,11.99 6.9,8.23 21.36,36.29 21.36,36.29l24.35 -11.9 5.55 14.73 -24.57 18.42c0,0 3.28,23.45 1.06,28.55 -5.47,2.61 -42.48,9.57 -42.48,9.57 0,0 7.1,-21.38 -1.37,-33.51 -8.47,-12.13 -19.69,-31.65 -17.58,-51.04 1.51,-13.92 17.63,-23.1 17.63,-23.1z"/>
   <path class="fil5" d="M353.09 182.93l-0.1 -0.12c-0.04,-0.04 -3.46,-4.35 -7.95,-13.67 -4.47,-9.28 -18.22,-26.67 -18.36,-26.85 -0.07,-0.09 -0.06,-0.22 0.04,-0.29 0.09,-0.08 0.22,-0.06 0.29,0.03 0.14,0.18 13.92,17.6 18.41,26.92 4.05,8.4 7.21,12.7 7.8,13.47l10.5 -4.53c0.11,-0.05 0.23,0 0.28,0.11 0.04,0.1 0,0.23 -0.11,0.27l-10.8 4.66z"/>
   <path class="fil5" d="M349.47 210.17c-10.68,0 -25.45,-17.89 -26.08,-18.66 -0.07,-0.09 -0.06,-0.22 0.03,-0.29 0.09,-0.08 0.23,-0.07 0.3,0.03 0.15,0.18 15.27,18.49 25.76,18.49l0.1 0c4.32,0 20.14,-10.64 20.3,-10.75 0.1,-0.07 0.23,-0.04 0.3,0.05 0.06,0.1 0.04,0.23 -0.06,0.3 -0.66,0.44 -16.09,10.83 -20.54,10.83l0 0 -0.11 0z"/>
   <path class="fil34" d="M325.22 130.66c0,0 3.75,-3.68 7.27,-2.64 9.16,2.69 21.63,29.46 29.18,44.19l-36.45 -41.55z"/>
   <path class="fil5" d="M345.15 99.16l-0.02 0c-0.12,-0.02 -0.2,-0.12 -0.19,-0.24 0,-0.03 0.1,-0.88 0.85,-1.33 0.65,-0.39 1.56,-0.36 2.7,0.09 0.11,0.04 0.16,0.17 0.12,0.27 -0.05,0.11 -0.17,0.17 -0.28,0.12 -1.01,-0.4 -1.79,-0.44 -2.31,-0.12 -0.58,0.34 -0.66,1.01 -0.66,1.02 -0.01,0.11 -0.1,0.19 -0.21,0.19z"/>
   <path class="fil5" d="M347.81 100.37c0.18,0.54 0.13,1.03 -0.11,1.11 -0.24,0.08 -0.57,-0.29 -0.75,-0.82 -0.17,-0.54 -0.12,-1.03 0.12,-1.11 0.23,-0.08 0.57,0.29 0.74,0.82z"/>
   <path class="fil5" d="M341.63 126.02l-7.06 -1.34c-1.07,-0.21 -2.06,0.61 -1.79,1.48l1.98 6.58c0.34,1.11 2.04,1.43 3.02,0.57l4.46 -3.92 5.7 2.08c1.1,0.4 2.37,-0.35 2.27,-1.35l-0.7 -6.89c-0.13,-1.29 -2.02,-1.83 -3.18,-0.91l-4.7 3.7z"/>
   <polygon class="fil5" points="362,104.66 361.55,107.84 352.72,111.43 353.01,109.39 "/>
   <path class="fil34" d="M351.75 125.46c0,0 4.22,-0.27 6.34,-0.01 2.12,0.27 11.96,15.3 16.89,26.56 4.93,11.26 7.52,15.45 7.52,15.45 0,0 -20.52,-23.77 -30.75,-42z"/>
   <path class="fil3" d="M413.64 123.24c0,0 -7.63,-12.75 -11.93,-13.76 -4.3,-1 -14.69,2.04 -14.15,3.84 0.53,1.79 7.62,0 7.62,0 0,0 -7.09,1.79 -6.01,3.76 1.07,1.97 7.34,1.43 7.34,1.43l5.41 9.92 11.72 -5.19z"/>
   <path class="fil3" d="M396.09 366.71c-0.04,0 -0.09,-0.01 -0.13,-0.04 -0.09,-0.07 -0.11,-0.21 -0.04,-0.3l2.91 -3.81 -6.97 -1.49 5.56 -2.4 -6.41 -3.72 7.68 0 -5.13 -5.07c-0.09,-0.08 -0.09,-0.21 0,-0.3 0.08,-0.08 0.21,-0.08 0.29,0l5.87 5.79 -7.14 0 5.77 3.36 -5.1 2.21 6.33 1.35 -3.32 4.34c-0.04,0.05 -0.11,0.08 -0.17,0.08z"/>
   <path class="fil3" d="M337.99 423.68c-0.11,0 -0.2,-0.08 -0.21,-0.2l-0.18 -4.79 -6.32 3.29 2.75 -5.39 -7.31 1.21 5.92 -4.89 -7.18 -0.64c-0.11,-0.01 -0.2,-0.11 -0.19,-0.23 0.01,-0.11 0.11,-0.2 0.23,-0.19l8.21 0.73 -5.51 4.54 6.59 -1.08 -2.53 4.95 5.74 -2.98 0.21 5.45c0,0.12 -0.09,0.22 -0.21,0.22l-0.01 0z"/>
   <path class="fil4" d="M338.19 108.26c-0.08,0 -0.15,-0.04 -0.19,-0.11 -0.49,-0.91 -1.1,-1.46 -1.83,-1.63 -1.12,-0.26 -2.15,0.46 -2.16,0.47 -0.09,0.07 -0.23,0.05 -0.29,-0.05 -0.07,-0.09 -0.05,-0.22 0.05,-0.29 0.04,-0.04 1.19,-0.85 2.49,-0.54 0.85,0.19 1.57,0.81 2.11,1.84 0.06,0.1 0.02,0.23 -0.08,0.28l-0.1 0.03z"/>
   <path class="fil3" d="M386.33 167.33c1.14,2.33 6.74,9.43 6.74,9.43 3.12,-0.52 6.89,-7.28 6.26,-10.02 -0.17,-0.74 -0.93,-6.78 -0.93,-6.78 1.94,-1.57 4.75,-2.12 6.37,-3.02 4.3,-2.41 0.16,-2.86 -4.9,-1.07 0,0 8.57,-3.82 7.52,-5.09 -0.95,-1.16 -4.31,0.06 -8.09,1.38 -0.27,0.09 -0.46,-0.36 -0.18,-0.42 4.08,-0.88 7.55,-2.65 6.28,-4.27 -0.57,-0.72 -3.53,0.38 -6.96,1.75 -0.48,0.19 -0.85,-0.52 -0.39,-0.76 2.23,-1.17 4.83,-2.27 4.62,-3.81 -0.34,-2.44 -9.61,2.5 -12.24,4.41 -3.95,2.87 -10.28,5.66 -4.1,18.27z"/>
   <path class="fil8" d="M393.47 134.17c0,1.22 -0.98,2.2 -2.2,2.2 -1.22,0 -2.21,-0.98 -2.21,-2.2 0,-1.22 0.99,-2.21 2.21,-2.21 1.22,0 2.2,0.99 2.2,2.21z"/>
   <path class="fil8" d="M398.98 133.74c0,1.22 -0.99,2.21 -2.21,2.21 -1.22,0 -2.2,-0.99 -2.2,-2.21 0,-1.21 0.98,-2.2 2.2,-2.2 1.22,0 2.21,0.99 2.21,2.2z"/>
   <path class="fil8" d="M394.02 142.37c0,1.22 -0.99,2.21 -2.2,2.21 -1.22,0 -2.21,-0.99 -2.21,-2.21 0,-1.21 0.99,-2.2 2.21,-2.2 1.21,0 2.2,0.99 2.2,2.2z"/>
   <path class="fil8" d="M399.53 141.95c0,1.22 -0.99,2.21 -2.21,2.21 -1.22,0 -2.21,-0.99 -2.21,-2.21 0,-1.22 0.99,-2.2 2.21,-2.2 1.22,0 2.21,0.98 2.21,2.2z"/>
   <path class="fil8" d="M392.93 126.23c0,1.22 -0.99,2.2 -2.21,2.2 -1.22,0 -2.2,-0.98 -2.2,-2.2 0,-1.22 0.98,-2.21 2.2,-2.21 1.22,0 2.21,0.99 2.21,2.21z"/>
   <path class="fil8" d="M398.43 125.81c0,1.21 -0.99,2.2 -2.2,2.2 -1.22,0 -2.21,-0.99 -2.21,-2.2 0,-1.22 0.99,-2.21 2.21,-2.21 1.21,0 2.2,0.99 2.2,2.21z"/>
   <path class="fil4" d="M617.05 414.95c0,0 1.1,17.73 0,17.73 -1.1,0 -31.2,0 -31.2,0 0,0 -1.48,-9.45 4.63,-15.36 6.12,-5.92 26.57,-2.37 26.57,-2.37z"/>
   <path class="fil4" d="M513.13 414.95c0,0 1.1,17.73 0,17.73 -1.1,0 -31.2,0 -31.2,0 0,0 -1.48,-9.45 4.64,-15.36 6.11,-5.92 26.56,-2.37 26.56,-2.37z"/>
   <path class="fil9" d="M577.63 200.11l-49.74 -1.38c0,0 -14.37,54.44 -15.47,78.76 -0.38,8.27 -1.68,34.63 -6.91,52.23 -0.77,2.58 -1.54,5.35 -2.32,8.26 -7.63,28.52 -15.37,76.29 -15.37,76.29l34.82 2.76c0,0 5.81,-51.39 7.19,-66.03 1.38,-14.65 10.22,-51.96 12.71,-63.84 2.49,-11.88 11.05,-37.3 11.05,-37.3 0,0 12.1,48.17 17.03,68.02 2.13,8.56 15.58,99.44 15.58,99.44l35.93 -2.77c0,0 -10.78,-56.65 -16.03,-68.8 -5.25,-12.16 -6.36,-38.97 -8.84,-56.93 -2.49,-17.96 -19.63,-88.71 -19.63,-88.71z"/>
   <path class="fil5" d="M617.05 432.68l-31.2 0 0 -5.26c0,0 0.9,2.47 11.28,2.63 10.4,0.16 20.41,-2.63 20.41,-2.63l-0.49 5.26z"/>
   <path class="fil5" d="M513.05 432.68l-31.2 0 0 -5.26c0,0 0.9,2.47 11.29,2.63 10.39,0.16 20.4,-2.63 20.4,-2.63l-0.49 5.26z"/>
   <path class="fil5" d="M616.84 415.01l0.41 -0.12c-0.2,-0.72 -20.46,-71.88 -21.88,-96.45 -1.41,-24.62 -19.69,-98.74 -19.88,-99.48l-0.41 0.1c0.19,0.74 18.46,74.83 19.88,99.4 1.41,24.62 21.68,95.83 21.88,96.55z"/>
   <path class="fil29" d="M548.98 91.19c0,0 -1.13,-10.63 -1.28,-14.03 -0.14,-3.41 7.94,-9.08 20.42,-2.7 12.48,6.38 9.08,16.19 7.8,21.84 -2.67,11.76 -9.64,12.16 -9.64,12.16l-9.45 0.54 -7.85 -17.81z"/>
   <path class="fil35" d="M548.29 79.42c0,0 -1.58,7.5 -2.37,12.13 -0.43,2.57 -1.89,4.45 -3.1,5.62 -0.77,0.75 -0.57,2.04 0.39,2.53l1.83 0.93c0,0 0.19,8.28 2.66,10.35 4.43,3.73 9.37,1.58 9.37,1.58l0.89 6.61 9.57 0.4c-0.1,0.42 -8.37,-2.92 -8.19,-14.5 0.06,-3.44 5.99,-2.67 4.93,-7.7 -1.93,-9.15 -9.32,-1.37 -11.93,-7.1 -2.08,-4.54 -4.05,-10.85 -4.05,-10.85z"/>
   <path class="fil27" d="M546.49 86.99c0.64,0 1.57,1.78 1.57,4.57 0,2.79 -0.93,4.57 -1.57,4.57 -0.65,0 -1.58,-1.78 -1.58,-4.57 0,-2.79 0.93,-4.57 1.58,-4.57zm0 10.06c1.62,0 2.49,-2.83 2.49,-5.49 0,-2.66 -0.87,-5.49 -2.49,-5.49 -1.62,0 -2.5,2.83 -2.5,5.49 0,2.66 0.88,5.49 2.5,5.49z"/>
   <path class="fil2" d="M609.94 195.93c-2.43,24.1 -9.12,32.92 -23.4,30.54 -14.28,-2.38 -37.09,-28.36 -37.09,-28.36l-22.61 -1.19 -19.44 13.88c0,0 -10.51,8.73 -22.22,-0.79 -11.7,-9.52 -25.71,-46.54 -25.71,-46.54l12.17 -8.04 22.27 24.04c0,0 16.65,-41.98 24.58,-50.31 7.93,-8.33 28.38,-10.98 28.38,-10.98l-1.59 -8.53 27.97 -1.59 -1.19 10.72c0,0 23,5.35 29.35,15.66 6.35,10.32 10.96,37.39 8.53,61.49z"/>
   <path class="fil21" d="M513.71 204.53c-3.2,-5.01 -4.9,-10.54 -5.23,-16.08 -9.1,1.4 -18.59,-2.54 -23.85,-10.8 -7.12,-11.15 -3.84,-25.97 7.32,-33.08 11.15,-7.12 25.97,-3.84 33.08,7.32 0.88,1.38 1.6,2.82 2.17,4.3 15.22,-7.54 34,-2.56 43.34,12.09 10.01,15.7 5.4,36.54 -10.29,46.55 -15.7,10.01 -36.54,5.4 -46.54,-10.3z"/>
   <polygon class="fil21" points="443.58,122.48 423.08,106.82 414.95,120.08 437.76,131.96 "/>
   <path class="fil8" d="M536.53 195.14c5.46,-0.02 9.86,-4.45 9.84,-9.9 -0.01,-5.45 -4.45,-9.86 -9.9,-9.84 -5.45,0.01 -9.86,4.45 -9.84,9.9 0.02,5.45 4.45,9.86 9.9,9.84z"/>
   <polygon class="fil4" points="542.28,182.98 440.71,120.72 434.89,130.22 536.46,192.48 "/>
   <polygon class="fil8" points="538.27,189.52 538.49,189.16 447.35,134.39 539.34,187.79 539.55,187.43 423.37,119.97 423.15,120.34 "/>
   <polygon class="fil8" points="540.35,186.13 540.57,185.77 451.07,130.59 541.36,184.49 541.58,184.12 426.01,115.14 425.79,115.5 "/>
   <path class="fil10" d="M459.47 163.47c0,0 -3.04,-3.69 -7.28,-6.41 -3.85,-2.45 -8.87,-3.82 -10.8,-5.64 -4.4,-4.15 5.02,-2.01 9.29,-1.51 4.26,0.5 1.5,-15.62 5.27,-19.26 3.76,-3.64 2.64,5.83 2.89,8.84 0.36,4.3 0.63,-12.2 5.08,-4.54 1.01,6.4 2.23,4.33 4.21,6.8 1.46,1.83 2.24,5.68 2.78,8.38 0.57,2.87 0.73,5.3 0.73,5.3l-12.17 8.04z"/>
   <path class="fil1" d="M590.48 197.14l-35.55 -11.63 -7.39 14.76c0,0 13.44,14.43 30.44,23.15 10.7,5.49 12.5,-26.28 12.5,-26.28z"/>
   <path class="fil35" d="M554.93 185.51c0,0 -6.22,-5.67 -8.9,-9.48 -2.69,-3.8 -3.2,-9.53 -5.52,-6.88 -2.31,2.64 1.84,10.71 1.84,10.71 0,0 -5.76,-1.76 -12.02,-6.68 -6.26,-4.92 -8.39,-1.6 -5.43,1.39 0.96,0.98 2.28,2.59 4.85,4.34 0.78,0.52 -8.91,-7.19 -10.33,-4.21 -1.1,2.29 1.62,4.67 4.3,6.6 1.11,0.79 -2.08,-0.75 -4.55,-0.75 -2.48,0 2.38,6.89 5.59,8.68 4.5,2.5 3.71,1.89 9.66,5.15 7.82,4.29 13.16,6.1 13.16,6.1l7.35 -14.97z"/>
   <polygon class="fil9" points="553.59,249.86 548.52,243.36 542.54,287.16 "/>
   <polygon class="fil5" points="554.28,71.87 544.45,63.16 582.63,110.81 576.67,99.49 586.21,79.42 571.88,63.16 "/>
   <path class="fil27" d="M559.34 92.5c0.25,0 0.45,-0.2 0.46,-0.45 0.02,-0.25 -0.18,-0.46 -0.44,-0.48l-10.82 -0.47c-0.25,-0.02 -0.47,0.18 -0.48,0.44 -0.01,0.25 0.19,0.47 0.44,0.48l10.82 0.47 0.02 0.01z"/>
   <polygon class="fil5" points="595.09,200.68 595.24,200.29 575.36,192.24 575.21,192.63 "/>
   <path class="fil8" d="M546.49 103.64c0,0 2.28,2.39 3.36,-0.6l-3.36 0.6z"/>
  </g>
 </g>
</svg>
